<svg width="286" height="234" viewBox="0 0 286 234" fill="none" xmlns="http://www.w3.org/2000/svg">
<path d="M280.852 51.1707V226.836C280.852 228.031 279.079 229 276.892 229H8.9596C6.77277 229 5 228.031 5 226.836V7.16425C5 5.96897 6.77277 5 8.9596 5H50.5354C52.7222 5 54.4949 5.96897 54.4949 7.16425V60.7348C54.4949 62.6629 58.76 63.6285 61.2544 62.2651L82.052 50.8975C83.5983 50.0523 86.1054 50.0523 87.6517 50.8975L103.83 59.7402C106.324 61.1036 110.589 60.138 110.589 58.2098V7.16425C110.589 5.96897 112.362 5 114.549 5H179.222M280.852 51.1707H183.182C180.995 51.1707 179.222 50.2017 179.222 49.0064V5M280.852 51.1707L179.222 5M53.1751 7.16425H83.532H113.889" stroke="#F69D40" stroke-width="10"/>
<path d="M142.926 90.4004H260.368" stroke="#25422B" stroke-opacity="0.72" stroke-width="10" stroke-linecap="round"/>
<path d="M142.926 111.4H260.368" stroke="#25422B" stroke-opacity="0.72" stroke-width="10" stroke-linecap="round"/>
<path d="M142.926 126.801H260.368" stroke="#25422B" stroke-opacity="0.72" stroke-width="10" stroke-linecap="round"/>
<path d="M30.9492 160.4H103.326" stroke="#25422B" stroke-opacity="0.72" stroke-width="10" stroke-linecap="round"/>
<path d="M30.9492 181.4H103.326" stroke="#25422B" stroke-opacity="0.72" stroke-width="10" stroke-linecap="round"/>
<path d="M30.9492 196.801H103.326" stroke="#25422B" stroke-opacity="0.72" stroke-width="10" stroke-linecap="round"/>
<path d="M142.926 143.6H260.368" stroke="#25422B" stroke-opacity="0.72" stroke-width="10" stroke-linecap="round"/>
<path d="M142.926 178.6H260.368" stroke="#25422B" stroke-opacity="0.72" stroke-width="10" stroke-linecap="round"/>
<path d="M142.926 196.801H260.368" stroke="#25422B" stroke-opacity="0.72" stroke-width="10" stroke-linecap="round"/>
<path d="M142.926 160.4H260.368" stroke="#25422B" stroke-opacity="0.72" stroke-width="10" stroke-linecap="round"/>
<rect x="35.9492" y="89.8008" width="65.1082" height="54.4" stroke="#25422B" stroke-opacity="0.72" stroke-width="10"/>
</svg>
