<svg width="246" height="151" viewBox="0 0 246 151" fill="none" xmlns="http://www.w3.org/2000/svg">
<g clip-path="url(#clip0_604_1823)">
<g filter="url(#filter0_d_604_1823)">
<path d="M117.832 43.8365C117.832 49.6633 116.136 55.398 112.899 60.5213C109.662 65.6447 106.91 68.956 101.218 72.1385C101.218 72.1385 98.9656 57.719 82.3279 48.8819C62.3142 39.7137 117.832 43.8365 117.832 43.8365Z" fill="#084014"/>
<path d="M107.104 39.2148L107.104 39.2152L107.105 39.2126L107.104 39.2148ZM106.723 41.0743C106.812 40.9309 106.91 40.8145 106.915 40.651C106.911 40.821 106.815 40.9403 106.723 41.0743ZM106.479 41.706C106.445 41.7862 106.441 41.8034 106.415 41.8864C106.402 41.9302 106.373 41.9595 106.331 41.9886C106.374 41.7325 106.557 41.4002 106.653 41.1993C106.674 41.1549 106.698 41.1141 106.722 41.0754C106.681 41.2492 106.545 41.5476 106.479 41.706ZM102.245 41.4427C102.223 41.5684 102.166 41.8722 102.076 41.9425C102.077 41.9484 102.078 41.9543 102.08 41.9604C102.073 41.9333 102.066 41.907 102.061 41.8831C102.018 41.7039 102.019 41.4523 102.057 41.2645C102.058 41.2551 102.06 41.2455 102.062 41.2356C102.062 41.2328 102.062 41.2299 102.063 41.2271C102.064 41.2196 102.065 41.2122 102.066 41.2045C102.067 41.2017 102.067 41.1986 102.067 41.1958C102.068 41.1875 102.07 41.1792 102.07 41.1706L102.071 41.1649C102.084 41.0469 102.088 40.9114 102.115 40.7987C102.119 40.7821 102.123 40.7659 102.128 40.7503C102.142 40.7882 102.159 40.8239 102.176 40.8582C102.178 40.8635 102.18 40.8707 102.182 40.879C102.193 40.9279 102.205 41.0183 102.217 41.05C102.233 41.1816 102.27 41.3066 102.245 41.4427ZM99.1353 36.2815C99.1387 36.2736 99.1523 36.2391 99.1518 36.1961C99.1523 36.2395 99.1387 36.2739 99.1353 36.2815ZM108.008 40.3469V40.3447C108.007 40.3346 108.007 40.3248 108.006 40.3152C108.006 40.3128 108.006 40.3101 108.006 40.3077C108.005 40.3001 108.005 40.2924 108.004 40.285C108.004 40.2825 108.004 40.2804 108.003 40.2782C108.002 40.2688 108.001 40.2596 108 40.2504L108 40.2455C107.998 40.2379 107.997 40.2302 107.996 40.2228C107.996 40.2202 107.995 40.2177 107.995 40.2153C107.993 40.2072 107.992 40.1991 107.99 40.1913L107.99 40.1886C107.988 40.1801 107.986 40.1713 107.984 40.1628C107.983 40.1604 107.983 40.1582 107.982 40.1558C107.981 40.1492 107.979 40.1424 107.977 40.1361L107.975 40.1298C107.973 40.1217 107.97 40.1133 107.968 40.1052L107.966 40.1009C107.964 40.0941 107.962 40.0875 107.96 40.0807C107.959 40.0785 107.958 40.0761 107.957 40.0737C107.955 40.0669 107.952 40.0599 107.949 40.0534L107.948 40.0501C107.945 40.0424 107.942 40.0348 107.939 40.0271L107.936 40.0207C107.934 40.0151 107.931 40.0091 107.929 40.0034L107.926 39.9973C107.922 39.9899 107.919 39.9827 107.915 39.9754L107.913 39.971C107.91 39.9651 107.907 39.9592 107.904 39.9535C107.903 39.9514 107.902 39.9489 107.901 39.9468C107.898 39.9408 107.895 39.9352 107.892 39.9292L107.889 39.9253C107.885 39.9185 107.881 39.9115 107.878 39.9047L107.874 39.8984C107.871 39.8933 107.868 39.8883 107.865 39.8835L107.861 39.8769C107.857 39.8704 107.853 39.864 107.849 39.8574L107.846 39.8522C107.843 39.8472 107.839 39.8423 107.836 39.8373C107.835 39.8349 107.833 39.8325 107.832 39.8301C107.829 39.8255 107.825 39.8207 107.822 39.8161L107.818 39.8104C107.814 39.8043 107.81 39.7983 107.806 39.7922C107.804 39.7896 107.802 39.7867 107.8 39.7841C107.798 39.7804 107.795 39.7765 107.792 39.7727C107.791 39.7701 107.789 39.7673 107.787 39.7646C107.784 39.7603 107.781 39.7561 107.778 39.7519C107.774 39.7469 107.771 39.7423 107.767 39.7375C107.766 39.7349 107.764 39.7322 107.762 39.7298C107.759 39.7259 107.756 39.7219 107.753 39.718L107.751 39.7145C107.65 39.5759 107.549 39.4455 107.503 39.2863C107.354 38.7651 107.781 38.0918 107.424 37.4898C107.066 36.8879 106.352 37.0098 106.352 37.0098L106.353 37.0096C106.241 37.0166 106.128 37.0413 106.021 37.0766C105.962 37.0768 105.902 37.0735 105.839 37.0652C105.707 37.0477 105.577 37.0273 105.444 37.0164C105.126 36.9894 104.807 37.0063 104.489 37.0358C104.181 37.0647 103.943 37.0435 103.633 37.0549C103.325 37.0663 103.064 36.9732 102.757 36.9997C102.748 36.9975 102.363 36.9763 102.204 36.9437C101.855 36.8721 101.666 36.7852 101.299 36.7852C100.907 36.7852 100.704 36.6821 100.573 36.5646C100.374 36.3859 100.242 36.3866 100.236 36.382C100.244 36.3623 100.252 36.3421 100.259 36.3214C100.343 36.0891 100.259 36.1051 100.259 36.1051C100.016 36.0902 99.842 36.125 99.7169 36.1808C99.6687 36.1734 99.6188 36.1683 99.5678 36.1651C99.5568 36.1581 99.5449 36.1517 99.5322 36.1456C99.5322 35.7859 99.1812 35.7216 98.8447 35.8131C98.6843 35.8569 98.5301 35.8256 98.5163 35.7489C98.5036 35.676 98.4454 35.6898 98.4463 35.7316C98.4499 35.891 98.4996 35.9473 98.8638 35.9864C98.9258 35.993 98.9742 36.0053 99.0132 36.0206C98.9647 36.0339 98.9163 36.0515 98.8685 36.0722C98.7179 36.1386 98.5602 36.1298 98.5332 36.0561C98.5077 35.9862 98.4528 36.0081 98.4609 36.0493C98.4926 36.2062 98.5514 36.2544 98.9179 36.2406C98.9929 36.2377 99.0509 36.2454 99.0957 36.2594C99.0294 36.3382 98.943 36.3921 98.864 36.4601C98.8015 36.5142 98.7733 36.5832 98.7373 36.6521C98.6809 36.7598 98.5483 36.843 98.4666 36.936C98.4089 37.0015 98.312 37.068 98.2583 37.1385C98.1592 37.2683 98.1394 37.3143 98.0497 37.3837C97.949 37.4616 97.9819 37.5268 98.034 37.6175C98.1559 37.83 98.2857 37.8569 98.2857 37.8569C98.2867 37.8607 98.2881 37.8642 98.29 37.8674C98.3201 37.9206 98.4654 37.9257 98.5614 37.8725C98.6201 37.8399 98.8547 37.8569 98.9282 37.8808C98.9642 37.8924 98.9967 37.9071 99.0265 37.9239C99.2141 38.0285 99.3088 38.2157 99.5771 38.2575C99.7029 38.277 100.218 38.5968 100.246 38.7176C100.291 38.9105 100.324 39.2478 100.46 39.4453C100.464 39.4514 100.468 39.4575 100.473 39.4636L100.478 39.47C100.481 39.4744 100.485 39.4788 100.488 39.4829L100.494 39.489C100.499 39.4945 100.503 39.5 100.509 39.505L100.51 39.5068C100.515 39.5122 100.521 39.5173 100.526 39.5223L100.532 39.5269C100.536 39.5306 100.541 39.5341 100.545 39.5376L100.551 39.542C100.557 39.5464 100.563 39.551 100.57 39.5551C100.645 39.6024 100.723 39.6418 100.775 39.7132C100.818 39.7723 100.805 39.8539 100.842 39.9159C100.892 39.9995 100.964 40.0481 101.058 40.0875C101.152 40.1267 101.311 40.1781 101.448 40.1819C101.47 40.3036 101.49 40.4266 101.498 40.5492C101.502 40.6039 101.504 40.6674 101.507 40.7333C101.507 40.7381 101.508 40.7431 101.508 40.7479C101.508 40.7532 101.508 40.7584 101.509 40.7637C101.509 40.7709 101.509 40.7781 101.51 40.7851C101.51 40.7891 101.51 40.793 101.511 40.7967C101.511 40.8075 101.512 40.8184 101.513 40.8289C101.513 40.8322 101.514 40.8355 101.514 40.8385C101.514 40.8469 101.515 40.8552 101.516 40.8633C101.516 40.8668 101.516 40.8705 101.517 40.8742C101.518 40.8834 101.519 40.8926 101.519 40.9016L101.52 40.9079C101.521 40.9189 101.523 40.9296 101.524 40.9403C101.524 40.9432 101.525 40.9462 101.525 40.9491C101.526 40.9574 101.527 40.9655 101.529 40.9734C101.529 40.9767 101.53 40.98 101.53 40.9832C101.532 40.9927 101.533 41.0021 101.535 41.0113L101.536 41.0148C101.538 41.025 101.54 41.0351 101.542 41.0447C101.543 41.0476 101.544 41.0504 101.544 41.0531C101.546 41.0605 101.548 41.0677 101.55 41.075C101.551 41.0776 101.551 41.0804 101.552 41.0833C101.555 41.0929 101.557 41.1021 101.561 41.1109C101.575 41.1549 101.596 41.1947 101.619 41.2332C101.631 41.2658 101.645 41.298 101.66 41.3306C101.675 41.4466 101.653 41.6655 101.628 41.7859C101.602 41.9127 101.61 42.1206 101.472 42.1504C101.311 42.185 101.236 42.3612 101.223 42.482H101.827C101.938 42.4936 101.986 42.4172 102 42.3408H102.384C102.55 42.3605 102.573 42.1598 102.558 42.0666C102.585 42.0677 102.609 42.06 102.626 42.03C102.687 41.9234 102.641 41.7728 102.618 41.6618C102.576 41.4587 102.577 41.1067 102.614 40.8935C102.641 40.7394 102.638 40.5938 102.673 40.448L102.674 40.4472C102.68 40.4207 102.687 40.3942 102.697 40.3677C102.732 40.2661 102.749 40.1654 102.757 40.0641C102.835 40.0671 102.912 40.075 102.991 40.0882C103.342 40.1468 103.678 40.2329 104.038 40.2188C104.337 40.207 104.628 40.1293 104.9 40.0223C105.082 39.9507 105.267 39.8811 105.467 39.8743C105.477 39.8741 105.486 39.8743 105.496 39.8747C105.499 39.8747 105.502 39.875 105.505 39.8752C105.512 39.8756 105.519 39.8763 105.526 39.8771C105.529 39.8776 105.531 39.8778 105.534 39.8782C105.539 39.8787 105.543 39.8798 105.547 39.8804C105.552 39.8813 105.556 39.882 105.56 39.8828C105.564 39.8837 105.568 39.8846 105.571 39.8855L105.577 39.887C105.58 39.8876 105.583 39.8885 105.586 39.8894C105.589 39.8903 105.592 39.8912 105.595 39.8922C105.613 39.9003 105.631 39.9078 105.65 39.9133C105.654 39.9152 105.658 39.9174 105.662 39.9194C105.667 39.9216 105.671 39.924 105.675 39.9264C105.68 39.9288 105.684 39.9314 105.689 39.9341C105.693 39.9365 105.697 39.9393 105.702 39.9419C105.706 39.9446 105.71 39.9474 105.715 39.9503C105.719 39.9531 105.723 39.9559 105.727 39.9588C105.731 39.9619 105.735 39.9649 105.739 39.968C105.744 39.9711 105.747 39.9741 105.752 39.9774C105.756 39.9807 105.759 39.9837 105.763 39.987C105.767 39.9905 105.771 39.9938 105.775 39.9975C105.779 40.0006 105.783 40.0039 105.787 40.0072C105.79 40.0111 105.794 40.0148 105.798 40.0186C105.802 40.0218 105.805 40.0251 105.809 40.0286C105.813 40.0326 105.817 40.0365 105.82 40.0407C105.824 40.0442 105.827 40.0474 105.83 40.051C105.834 40.0551 105.838 40.0595 105.842 40.0639C105.845 40.0674 105.848 40.0706 105.851 40.0739C105.855 40.0787 105.859 40.0833 105.863 40.0882C105.866 40.0914 105.868 40.0945 105.871 40.0976C105.875 40.1033 105.88 40.1092 105.884 40.1149C105.886 40.1173 105.888 40.1195 105.89 40.1219C105.896 40.13 105.902 40.1383 105.908 40.1466L105.909 40.1477C105.915 40.1556 105.92 40.1635 105.925 40.1716C105.927 40.1738 105.929 40.1762 105.93 40.1784C105.934 40.1845 105.938 40.1904 105.942 40.1965C105.944 40.1991 105.946 40.2022 105.947 40.2051C105.951 40.2103 105.955 40.2158 105.958 40.2215C105.96 40.2243 105.962 40.2274 105.963 40.2304C105.967 40.2357 105.97 40.2407 105.973 40.246C105.975 40.2491 105.977 40.2521 105.978 40.2552C105.981 40.2602 105.984 40.2653 105.987 40.2705C105.989 40.2734 105.991 40.2762 105.992 40.2793C105.995 40.2843 105.998 40.2893 106.001 40.2944C106.002 40.297 106.004 40.2998 106.005 40.3027C106.008 40.3077 106.011 40.3128 106.013 40.3176C106.015 40.3202 106.016 40.3228 106.018 40.3254C106.02 40.3303 106.023 40.3353 106.025 40.3399C106.027 40.3425 106.028 40.3449 106.029 40.3471C106.032 40.3522 106.034 40.3572 106.037 40.362L106.04 40.3677C106.042 40.3732 106.045 40.3786 106.048 40.3837L106.05 40.3867C106.056 40.4003 106.062 40.4128 106.068 40.424L106.069 40.4268C106.072 40.4307 106.073 40.4349 106.075 40.4384L106.078 40.4447C106.08 40.4469 106.081 40.4493 106.082 40.4515C106.084 40.4557 106.086 40.4594 106.088 40.4629C106.195 40.6582 106.214 40.9607 106.192 41.1746C106.169 41.3976 106.018 41.7183 105.921 41.9221C105.888 41.9928 105.883 42.0081 105.858 42.0812C105.834 42.1526 105.756 42.1802 105.641 42.2454C105.591 42.2743 105.506 42.4111 105.531 42.482H106.158C106.19 42.4536 106.209 42.4098 106.211 42.3419L106.217 42.3408H106.716C106.747 42.3085 106.767 42.259 106.768 42.1819C106.879 42.1734 106.881 42.0026 106.88 41.9037C106.876 41.6053 107.1 41.0809 107.21 40.8195C107.317 40.566 107.489 40.5052 107.471 40.2375C107.464 40.1203 107.369 40.0111 107.308 39.7353C107.295 39.6773 107.285 39.6033 107.277 39.5223C107.276 39.5131 107.275 39.5039 107.274 39.4945L107.274 39.4928C107.257 39.3091 107.25 39.0974 107.246 38.9604V38.9595C107.246 38.9317 107.245 38.9072 107.245 38.8866V38.8838C107.245 38.8792 107.245 38.875 107.245 38.8711V38.8674C107.245 38.8636 107.245 38.8601 107.244 38.8566V38.854C107.244 38.8477 107.244 38.842 107.244 38.8374V38.8348C107.244 38.8321 107.244 38.8299 107.244 38.828V38.8172C107.351 38.3945 107.414 37.9469 107.288 37.5371C107.524 37.8797 107.416 38.4453 107.358 38.8186C107.283 39.3028 107.553 39.7449 107.553 39.7449C107.553 39.7449 107.552 39.7793 107.552 39.8329C107.551 39.9242 107.551 40.0715 107.553 40.2029V40.2057C107.553 40.2237 107.554 40.2416 107.554 40.2589L107.554 40.2626C107.554 40.2698 107.554 40.2771 107.555 40.2841L107.555 40.2889C107.555 40.3051 107.556 40.3206 107.556 40.3353L107.556 40.3406C107.557 40.3462 107.557 40.3517 107.557 40.357L107.557 40.3624C107.558 40.369 107.558 40.3756 107.559 40.3817V40.3821C107.559 40.3885 107.559 40.3944 107.56 40.4003L107.56 40.4051C107.56 40.4093 107.561 40.4134 107.561 40.4176L107.561 40.422C107.562 40.4272 107.562 40.4321 107.563 40.4369C107.603 40.8234 107.66 41.0349 107.695 41.1367C107.696 41.1636 107.697 41.1905 107.699 41.2175V41.2179C107.699 41.2282 107.707 41.2378 107.718 41.2415C107.734 41.2464 107.75 41.2391 107.756 41.2253C107.776 41.1719 107.794 41.1185 107.81 41.0644C107.811 41.0623 107.812 41.0599 107.813 41.0577C107.815 41.0542 107.816 41.0511 107.818 41.0478C107.824 41.0353 107.83 41.0231 107.836 41.0108C107.838 41.0067 107.84 41.0025 107.842 40.9983C107.849 40.9835 107.856 40.9688 107.862 40.9543V40.9539C107.869 40.939 107.875 40.9246 107.881 40.9101C107.883 40.9064 107.884 40.9027 107.886 40.8987C107.891 40.8874 107.895 40.876 107.9 40.8646C107.901 40.8615 107.902 40.8585 107.903 40.8554C107.909 40.8416 107.914 40.828 107.919 40.8143C107.92 40.8116 107.921 40.809 107.922 40.8064C107.926 40.7952 107.93 40.7843 107.934 40.7733C107.935 40.7698 107.936 40.7661 107.937 40.7626C107.942 40.7499 107.945 40.7372 107.949 40.7247L107.95 40.7236C107.954 40.7107 107.957 40.6978 107.961 40.6853C107.962 40.682 107.963 40.6785 107.964 40.6752C107.966 40.6654 107.969 40.6553 107.971 40.6455C107.972 40.6429 107.973 40.64 107.974 40.6374C107.976 40.6251 107.979 40.6131 107.982 40.6013C107.982 40.5991 107.983 40.5967 107.983 40.5945C107.985 40.5848 107.987 40.575 107.989 40.5654C107.989 40.5623 107.99 40.559 107.991 40.5559C107.992 40.545 107.994 40.5343 107.996 40.5236L107.996 40.5216C107.998 40.5102 107.999 40.4993 108.001 40.4881C108.001 40.4852 108.001 40.4824 108.002 40.4795C108.002 40.4708 108.003 40.462 108.004 40.4535C108.004 40.4509 108.005 40.4485 108.005 40.4461C108.006 40.4353 108.006 40.4248 108.007 40.4145L108.007 40.4088C108.007 40.4001 108.008 40.3916 108.008 40.383C108.008 40.3802 108.008 40.3773 108.008 40.3747C108.008 40.3653 108.008 40.3561 108.008 40.3469Z" fill="#084014"/>
<path d="M55.8551 38.4002C57.5407 38.4806 59.1557 37.6238 59.1557 37.6238C59.1557 37.6238 59.0598 40.6825 59.0309 41.6715L52.8672 42.718L53.0483 36.502C53.0483 36.502 53.97 38.3103 55.8551 38.4002Z" fill="#084014" stroke="#084014" stroke-width="2" stroke-linecap="round"/>
<path d="M65.6434 31.9505L69.9231 34.8216L69.9188 42.7768L59.4556 42.0019L59.4591 35.3693L65.6434 31.9505ZM65.6434 31.9505L58.1804 31.873L53 35.0035L59.7498 35.368L53.2551 35.1193L53.0038 42.2889" stroke="#084014" stroke-width="2" stroke-linecap="round"/>
<path d="M66.636 37.6352C66.636 37.6352 67.1279 36.3608 66.6253 35.636C66.3905 35.2971 64.1328 35.6474 64.1328 35.6474L64.1436 37.6464L66.636 37.6352Z" stroke="#084014" stroke-width="2" stroke-linecap="round"/>
<path d="M70.2971 34.9655L69.6172 34.5332" stroke="#084014" stroke-width="2" stroke-linecap="round"/>
<path d="M66.4347 37.5756C66.4347 37.5756 66.9976 35.9374 66.2984 35.6983C65.5991 35.4591 64.3047 35.7677 64.3047 35.7677" stroke="#084014" stroke-width="2" stroke-linecap="round"/>
<path d="M57.4198 33.9263C58.5723 33.9486 62.5783 33.4657 62.5783 33.4657L59.4431 34.9567L53.2422 34.8076L56.0989 33.0332C56.0989 33.0332 55.1512 33.8827 57.4198 33.9263Z" fill="#084014" stroke="#084014" stroke-width="2" stroke-linecap="round"/>
<path d="M87.1016 43.3211V38.3427C87.1016 38.3427 87.1016 37.7631 87.1016 38.2265" stroke="#084014" stroke-width="2"/>
<path d="M86.5078 43.6841V39.0487C86.5078 39.0487 86.5078 38.5094 86.5078 38.9406" stroke="#084014" stroke-width="2"/>
<path d="M86.1094 43.3197V39.3712C86.1094 39.3712 86.1094 38.9118 86.1094 39.2791" stroke="#084014" stroke-width="2"/>
<path d="M87.0265 38.2686C87.0265 38.2686 85.6855 40.2971 83.634 39.5546C81.4716 38.772 84.3034 36.1895 84.3034 36.1895" stroke="#084014" stroke-width="2"/>
<path d="M87.0313 38.1069C87.0313 38.1069 85.8308 39.894 83.9942 39.2399C82.0582 38.5504 84.5932 36.2754 84.5932 36.2754" stroke="#084014" stroke-width="2"/>
<path d="M84.1144 36.3618C84.1144 36.3618 81.5756 35.4919 82.146 33.6805C82.8118 31.5662 85.4444 32.3941 85.4444 32.3941" stroke="#084014" stroke-width="2"/>
<path d="M84.0183 36.36C84.0183 36.36 81.8535 35.4277 82.4239 33.6161C83.0897 31.5017 85.7223 32.3296 85.7223 32.3296" stroke="#084014" stroke-width="2"/>
<path d="M85.5391 32.0532C85.5391 32.0532 85.536 29.9107 88.1325 30.2839C90.5274 30.6282 90.2336 32.3192 90.2336 32.3192" stroke="#084014" stroke-width="2"/>
<path d="M87.2996 33.4037C87.4125 33.6449 87.4944 33.7407 87.84 33.986C88.0853 34.1599 88.39 33.4037 88.39 33.4037C88.39 33.4037 87.002 32.7678 87.2996 33.4037Z" fill="#084014"/>
<path d="M85.8551 33.0498C85.8661 33.4392 85.0312 32.3981 85.0312 32.3981L86.0381 31.6777C86.0381 31.6777 85.8221 31.8747 85.8551 33.0498Z" fill="#084014"/>
<path d="M83.8125 35.8867C83.8125 35.8867 84.4583 36.1848 85.2981 35.9545C85.615 35.8677 84.8253 36.5981 84.8253 36.5981L83.8125 35.8867Z" fill="#084014"/>
<path d="M87.5995 35.8612L86.4062 38.3179C86.4062 38.3179 87.2198 36.7123 86.4969 36.0206C86.1447 35.6837 87.5995 35.8612 87.5995 35.8612Z" fill="#084014"/>
<path d="M87.5972 35.8633L87.2999 36.7721L87.1016 36.3175" stroke="#084014" stroke-width="2"/>
<path d="M87.2006 36.6797L87.1016 37.316" stroke="#084014" stroke-width="2"/>
<path d="M85.4375 32.6084C85.4375 32.6084 85.4346 30.4216 87.9846 30.8023C90.3366 31.1534 90.5549 31.8854 90.0478 32.8792C89.6905 33.5801 88.8073 33.8982 87.9978 33.6808" stroke="#084014" stroke-width="2"/>
<path d="M87.5012 36.1953C87.7326 36.2822 87.588 38.6128 86.5 39.2144" stroke="#084014" stroke-width="2"/>
<path d="M87.4065 36.9727C87.4065 36.9727 86.6462 39.3017 85.4219 39.5574" stroke="#084014" stroke-width="2"/>
<path d="M83.7557 33.5728C83.7557 33.9082 83.86 35.4597 84.675 34.7533C85.0821 34.4007 84.7275 33.1814 84.6852 33.4135C84.6609 33.5481 84.385 35.2294 84.532 35.1846C84.9375 35.0604 85.0428 33.677 85.0428 33.3292C85.0428 33.1762 84.7829 32.5987 84.6852 33.001C84.2707 34.7124 84.6401 32.4054 83.9395 32.7668C83.6581 32.9122 83.7557 33.4082 83.7557 33.6571C83.7557 34.194 83.8201 33.8202 83.4798 33.7508C82.9858 33.6501 82.8054 34.9876 83.061 35.222C83.4333 35.5635 84.5251 34.7783 84.0313 34.416C83.6502 34.1363 84.1936 33.4476 83.3879 33.404C82.8063 33.3727 82.892 34.5471 83.2856 34.7533C83.8335 35.0405 84.2225 35.1047 84.3072 35.7655C84.3643 36.209 85.7785 35.9187 85.7785 35.3437C85.7785 35.0195 85.8919 33.6107 85.5537 34.4723C85.3769 34.9228 85.2268 35.7195 85.2268 34.8378C85.2268 34.0927 85.2146 33.8996 85.7375 33.3666C85.8718 33.2296 85.7785 32.6467 85.7785 33.3292C85.7785 33.8291 85.6993 34.1827 85.6048 34.6596C85.5024 35.1765 85.8138 35.9485 84.9509 35.5967C84.0788 35.2413 83.8242 35.5269 84.859 35.0909C85.406 34.8602 86.1911 34.8219 86.3198 34.1724C86.3477 34.0323 86.4126 33.4618 86.2279 33.4135C85.8785 33.322 85.8038 33.4631 85.7785 33.0667C85.7685 32.9111 85.9387 33.5787 86.841 33.3292C87.2229 33.2234 89.1111 31.6027 88.3326 31.3987C87.7207 31.2385 86.8811 31.3799 86.2484 31.3799C85.3026 31.3799 84.6666 32.7962 85.7785 33.0293C86.4751 33.1753 87.3071 32.9564 87.0556 32.1484C86.9315 31.7505 85.2544 32.5193 86.8818 32.5606C87.2176 32.5692 88.139 32.5066 87.9748 31.9797C87.9059 31.7579 86.8343 31.886 86.6467 31.886C85.8978 31.886 88.23 31.9147 88.8638 31.5487C89.3772 31.2523 89.1314 31.6522 88.9046 31.886C88.719 32.0775 88.6514 32.3807 88.7309 32.6357C88.8106 32.8914 88.9321 32.0381 89.0068 31.9891C89.6569 31.5631 89.4564 33.0836 89.4564 32.7294C89.4564 32.3106 89.7996 31.0942 89.6299 31.483C89.5127 31.7518 89.2123 33.3907 88.7617 32.7294C88.2269 31.9444 88.003 33.3749 87.8422 33.3946C86.5455 33.5533 86.1463 33.1709 86.1463 34.4537C86.1463 35.1388 85.6709 35.6758 85.5945 36.2714C85.5038 36.9778 84.9778 36.8904 84.5728 37.3679C84.2099 37.796 83.9784 38.2927 84.4912 38.5017C85.2027 38.7918 85.7785 38.7839 85.7785 38.0425C85.7785 37.2258 84.2497 38.1285 84.9406 38.4267C85.5869 38.7055 86.1165 37.2617 85.6864 36.9463C84.9831 36.4301 85.1647 37.6076 85.4108 37.6209C85.5602 37.629 86.084 37.6938 86.136 37.5272C86.2005 37.3199 86.2234 36.6805 86.136 36.8806C86.0188 37.1492 85.9623 38.3514 85.9623 37.7895C85.9623 37.2553 85.9623 36.7212 85.9623 36.1871C85.9623 35.426 85.9623 37.1463 85.9623 37.4521C85.9623 38.3982 86.33 37.9622 86.33 37.2085C86.33 36.2403 86.514 36.2607 86.514 37.2836C86.514 38.0727 86.8818 36.3141 86.8818 35.9341C86.8818 35.4676 87.0656 34.9536 87.0656 34.416C87.0656 34.1632 87.0656 33.9101 87.0656 33.6571C87.0656 32.7642 87.0656 34.3291 87.0656 34.5473C87.0656 34.6649 86.9727 36.5126 86.6978 35.7561C86.4909 35.1865 86.3973 34.5695 86.657 34.0038C86.8909 33.4942 86.6002 33.7707 86.5243 34.1538C86.4191 34.6844 86.514 35.3076 86.514 35.8404C86.514 35.9117 86.5334 37.205 86.657 37.0774C86.9427 36.7825 86.8818 35.7607 86.8818 35.3905C86.8818 34.4738 86.9217 34.3957 87.7092 33.9944C88.0842 33.8035 89.2063 33.5798 88.823 33.404C88.3312 33.1786 87.4336 33.3276 87.4336 33.8256C87.4336 34.3608 87.6173 34.8637 87.6173 35.4282C87.6173 36.0181 87.9851 34.641 87.9851 34.3317C87.9851 33.4218 87.2133 34.5244 86.9226 34.791C86.7035 34.9919 85.6917 36.1823 86.2382 35.681C86.6222 35.329 86.425 34.8825 86.7389 34.4911C86.8477 34.3552 87.1937 34.3 87.2393 34.1538C87.2627 34.0787 87.2465 33.8164 87.3925 33.8164C87.466 33.8164 87.2808 37.4847 87.7603 36.4402C88.1825 35.521 88.1691 34.071 88.1691 33.0667" stroke="#084014" stroke-width="2" stroke-linecap="round"/>
<path d="M83.8828 36.1035C83.9239 36.4044 84.5742 36.2721 84.8023 36.2721" stroke="#084014" stroke-width="2" stroke-linecap="round"/>
<path d="M85.1719 37.1152V38.1272" stroke="#084014" stroke-width="2" stroke-linecap="round"/>
<path d="M86.0937 38.123C86.0627 38.3505 84.9888 38.3483 84.7145 38.46C84.3816 38.5956 83.7031 39.4722 83.7031 38.46" stroke="#084014" stroke-width="2" stroke-linecap="round"/>
<path d="M86.3174 31.8056C85.8494 31.8056 85.6077 32.3529 85.3273 32.6212C85.1094 32.8298 85.4072 32.7287 85.5685 32.6972C85.9855 32.6162 86.3382 32.4643 86.6919 32.2482C86.7943 32.1856 86.7344 32.1241 86.6594 32.1887C86.2821 32.5144 86.2606 33.0093 86.1878 33.4436C86.168 33.5616 85.5514 33.3484 85.3669 33.351C84.992 33.357 84.4989 33.531 84.2474 33.8002C84.0156 34.0482 84.1786 34.4149 83.7252 34.3483C83.6622 34.3392 83.4252 34.2422 83.3689 34.2825C83.2691 34.3534 83.1634 34.6036 83.1455 34.7183C83.1293 34.8227 83.1419 34.9365 83.1419 35.0418C83.1419 35.1642 83.2438 35.0898 83.2679 35.1672C83.3763 35.5151 83.6292 35.6797 83.8187 36.0028C83.9159 36.1681 83.9085 36.3296 84.0493 36.4883C84.1593 36.6122 84.3154 36.6862 84.438 36.7987C84.5493 36.9005 84.9862 37.1465 85.0177 37.2477C85.0335 37.2987 85.0328 37.4048 85.007 37.4525C84.9633 37.5324 83.7689 38.4039 83.7252 38.324C83.5488 38.0002 85.0213 36.7398 85.0213 36.3859C85.0213 36.1089 84.7313 36.52 84.6757 36.5938C84.5259 36.7928 84.3805 37.085 84.3734 37.3337C84.3581 37.8446 84.8359 37.9578 85.3165 37.7496C85.4478 37.6927 85.7342 37.3891 85.7342 37.2509C85.7342 36.9287 84.5607 39.114 84.6757 39.4185C84.7753 39.6825 86.4812 37.6257 86.5081 37.4525C86.569 37.062 86.5117 37.9059 86.5117 38.0469C86.5117 38.0928 86.5544 38.306 86.573 38.1526C86.616 37.7984 86.5871 37.4046 86.4721 37.0662C86.2838 36.5115 85.9826 35.8806 85.6046 35.4183C85.1213 34.8273 84.8239 34.0736 84.3373 33.4997C84.0073 33.1105 83.7634 33.1133 83.2355 33.1133C83.1484 33.1133 82.9202 33.1133 83.1636 33.1133C83.5197 33.1133 83.855 33.077 84.2077 33.0406C85.2862 32.9297 86.632 33.0518 87.6315 32.6379C87.903 32.5254 88.1636 32.3756 88.4558 32.3076C88.6173 32.2701 88.8233 32.3264 88.9744 32.2679C89.0849 32.2252 89.8409 31.7605 89.8657 31.8058C90.05 32.144 89.4223 32.9351 88.9744 32.9351" stroke="#084014" stroke-width="2" stroke-linecap="round"/>
<path d="M88.1989 33.8281C88.5452 33.9693 88.8442 34.0459 89.1855 34.2309C89.5778 34.4437 89.9387 34.7851 90.2728 35.0763C90.6217 35.3806 90.6208 36.0863 90.5967 36.5028C90.5578 37.1823 89.0387 37.5172 88.5087 37.619C87.9264 37.7309 87.3694 37.751 86.7734 37.751" stroke="#084014" stroke-width="2" stroke-linecap="round"/>
<path d="M88.5833 35.3146C88.4191 35.7213 88.4217 36.0254 88.3745 36.4573C88.3504 36.6786 88.3241 37.3182 88.3241 36.695C88.3241 36.1064 88.5305 35.3985 88.3384 34.8258C88.2649 34.6063 88.2876 34.184 88.6193 34.4594C88.9931 34.7696 89.4327 34.9644 89.7823 35.2849C89.8995 35.3923 89.9818 35.3993 90.0415 35.5524C90.0949 35.69 90.082 35.831 90.1529 35.9685C90.272 36.199 90.3615 36.3955 90.0379 36.5035C89.6653 36.6276 89.2949 37.2584 88.895 37.2992C88.6282 37.3265 88.363 37.0041 88.1296 37.1111C87.9387 37.1987 87.3852 37.4023 87.6473 36.9559C87.7206 36.8309 87.8272 36.7176 87.9029 36.5926C87.99 36.449 88.2542 36.3892 88.389 36.2657C88.5771 36.093 88.4031 35.6872 88.4573 35.4633C88.4735 35.3963 89.0785 35.0239 89.1336 35.1102C89.2594 35.3063 88.8425 35.8061 88.8425 36.0212C88.8425 36.0987 88.7888 36.6372 88.857 36.6685C89.0439 36.7543 89.2961 35.7424 89.2961 35.6119C89.2961 35.4166 89.2446 35.5802 89.3897 35.7605C89.5038 35.9017 89.521 36.0593 89.6057 36.2062C89.6577 36.2962 89.6644 36.3861 89.7174 36.4737C89.7804 36.5779 89.7498 36.0764 89.7498 35.9685" stroke="#084014" stroke-width="2" stroke-linecap="round"/>
<path d="M72.3281 17.4945L72.7169 16.873L73.1059 17.4945H72.3281Z" fill="#084014" stroke="#084014" stroke-width="2"/>
<path d="M74.6562 17.9094L75.2226 17.6426L75.1894 18.2284L74.6562 17.9094Z" fill="#084014" stroke="#084014" stroke-width="2"/>
<path d="M76.1484 19.5379L76.7837 19.5137L76.489 20.0335L76.1484 19.5379Z" fill="#084014" stroke="#084014" stroke-width="2"/>
<path d="M76.9219 21.2949L77.4724 21.5882L76.9219 21.8814V21.2949Z" fill="#084014" stroke="#084014" stroke-width="2"/>
<path d="M76.2607 23.4375L76.5887 23.9402L75.9531 23.9507L76.2607 23.4375Z" fill="#084014" stroke="#084014" stroke-width="2"/>
<path d="M74.9668 24.8672L75.0076 25.4526L74.4375 25.1908L74.9668 24.8672Z" fill="#084014" stroke="#084014" stroke-width="2"/>
<path d="M72.9014 25.5901L72.5778 26.095L72.2656 25.584L72.9014 25.5901Z" fill="#084014" stroke="#084014" stroke-width="2"/>
<path d="M70.6295 25.1742L70.0703 25.4534L70.088 24.8672L70.6295 25.1742Z" fill="#084014" stroke="#084014" stroke-width="2"/>
<path d="M68.8855 23.7939L68.25 23.7722L68.5882 23.2754L68.8855 23.7939Z" fill="#084014" stroke="#084014" stroke-width="2"/>
<path d="M68.2241 21.8777L67.6719 21.5871L68.2205 21.291L68.2241 21.8777Z" fill="#084014" stroke="#084014" stroke-width="2"/>
<path d="M68.5289 19.9284L68.2031 19.4245L68.8389 19.416L68.5289 19.9284Z" fill="#084014" stroke="#084014" stroke-width="2"/>
<path d="M70.0469 18.1804L70.0536 17.5938L70.6008 17.8925L70.0469 18.1804Z" fill="#084014" stroke="#084014" stroke-width="2"/>
<path d="M76.3444 21.5367C76.3444 23.4597 74.6567 25.0185 72.5747 25.0185C70.4927 25.0185 68.8047 23.4597 68.8047 21.5367C68.8047 19.6137 70.4927 18.0547 72.5747 18.0547C74.6567 18.0547 76.3444 19.6137 76.3444 21.5367Z" fill="#084014"/>
<path d="M50.871 24.7651C39.5471 40.2892 44.088 61.2938 61.013 71.6803C77.938 82.0666 100.838 77.9018 112.162 62.3778C123.486 46.8535 118.945 25.8491 102.02 15.4626C85.0947 5.07626 62.1946 9.24103 50.871 24.7651Z" stroke="#084014" stroke-width="2"/>
<path d="M180.983 73.7838C188.166 73.7838 193.99 68.4425 193.99 61.8538C193.99 55.2651 188.166 49.9238 180.983 49.9238C173.8 49.9238 167.977 55.2651 167.977 61.8538C167.977 68.4425 173.8 73.7838 180.983 73.7838Z" stroke="#084014" stroke-width="2"/>
<path d="M43.0907 13.4792C46.8471 13.4792 49.8923 10.686 49.8923 7.24056C49.8923 3.79507 46.8471 1.00195 43.0907 1.00195C39.3342 1.00195 36.2891 3.79507 36.2891 7.24056C36.2891 10.686 39.3342 13.4792 43.0907 13.4792Z" stroke="#084014" stroke-width="2"/>
<path d="M54.7832 20.1537L47.2656 12.3828" stroke="#084014" stroke-width="2"/>
<path d="M115 53.0977L166.907 59.2268" stroke="#084014" stroke-width="2"/>
<path d="M122.92 101.803C128.39 101.803 132.824 97.7362 132.824 92.7191C132.824 87.7019 128.39 83.6348 122.92 83.6348C117.45 83.6348 113.016 87.7019 113.016 92.7191C113.016 97.7362 117.45 101.803 122.92 101.803Z" stroke="#084014" stroke-width="2"/>
<path d="M104.5 67.9395L117.626 85.4513" stroke="#084014" stroke-width="2"/>
<path d="M80.9117 80.3504C77.9233 85.7379 69.0828 76.8925 63.2091 74.1517C57.3351 71.4106 45.0672 69.3595 48.0556 63.972C50.3218 58.7193 65.3563 59.1381 70.2918 61.4409C79.1981 65.5965 83.4159 78.163 80.9117 80.3504Z" fill="#F2F2D1"/>
<path d="M101.658 72.5379C105.304 67.5026 70.828 74.6338 65.3726 71.3105C59.917 67.9872 45.9079 39.8613 42.2618 44.8966C38.392 49.2908 52.2028 80.4234 56.7866 83.2162C65.058 88.2554 100.806 75.6097 101.658 72.5379Z" fill="#F2F2D1"/>
<path d="M64.7624 73.6029C67.0689 73.6029 68.9388 71.8878 68.9388 69.7721C68.9388 67.6565 67.0689 65.9414 64.7624 65.9414C62.4558 65.9414 60.5859 67.6565 60.5859 69.7721C60.5859 71.8878 62.4558 73.6029 64.7624 73.6029Z" fill="#084014"/>
<path d="M44.2135 49.9915L41.25 45.1758L47.9434 45.6136L48.4096 48.8449L44.2135 49.9915Z" fill="#F2F2D1"/>
<path d="M42.8819 49.7744L42.0469 46.2722L46.7004 45.1777L47.1777 48.5704L42.8819 49.7744Z" stroke="#F2F2D1" stroke-width="2"/>
<path d="M42.8819 49.7744L42.0469 46.2722L46.7004 45.1777L47.1777 48.5704L42.8819 49.7744Z" stroke="#F2F2D1" stroke-width="2"/>
<path d="M42.8819 49.7744L42.0469 46.2722L46.7004 45.1777L47.1777 48.5704L42.8819 49.7744Z" stroke="#F2F2D1" stroke-width="2"/>
<path d="M46.3602 55.68L38.2656 49.4414L50.09 51.302L50.5563 54.5333L46.3602 55.68Z" fill="#F2F2D1"/>
<path d="M44.3116 55.4658L43.4766 51.9636L48.1301 50.8691L48.6074 54.2618L44.3116 55.4658Z" stroke="#F2F2D1" stroke-width="2"/>
<path d="M44.3116 55.4658L43.4766 51.9636L48.1301 50.8691L48.6074 54.2618L44.3116 55.4658Z" stroke="#F2F2D1" stroke-width="2"/>
<path d="M44.3116 55.4658L43.4766 51.9636L48.1301 50.8691L48.6074 54.2618L44.3116 55.4658Z" stroke="#F2F2D1" stroke-width="2"/>
<path d="M49.503 61.8096L41.4922 55.571L52.4355 54.5859L53.6635 60.6418L49.503 61.8096Z" fill="#F2F2D1"/>
<path d="M47.6537 61.8146L45.7891 55.8995L50.6814 54.3672L51.9494 60.6106L47.6537 61.8146Z" stroke="#F2F2D1" stroke-width="2"/>
<path d="M47.6537 61.8146L45.7891 55.8995L50.6814 54.3672L51.9494 60.6106L47.6537 61.8146Z" stroke="#F2F2D1" stroke-width="2"/>
<path d="M47.6537 61.8146L45.7891 55.8995L50.6814 54.3672L51.9494 60.6106L47.6537 61.8146Z" stroke="#F2F2D1" stroke-width="2"/>
<path d="M42.2031 43.8595L43.1945 43.6406L43.635 46.3769L42.864 46.4863L42.2031 43.8595Z" fill="#F2F2D1"/>
<path d="M42.2031 43.8595L43.1945 43.6406L43.635 46.3769L42.864 46.4863L42.2031 43.8595Z" stroke="#F2F2D1" stroke-width="2"/>
<path d="M41.7266 43.5715L43.1201 43.252L43.6426 46.7669L42.5975 46.9266L41.7266 43.5715Z" stroke="#F2F2D1" stroke-width="2"/>
<path d="M41.375 43.4117L43.1169 42.4531L43.8136 46.9266L42.2459 47.2462L41.375 43.4117Z" stroke="#F2F2D1" stroke-width="2"/>
<path d="M42.25 49.3326L43.9919 48.3652L45.5595 53.1583H43.6403L42.25 49.3326Z" fill="#F2F2D1"/>
<path d="M42.9219 49.5507L43.6378 49.332L44.3538 52.068L43.5827 52.1775L42.9219 49.5507Z" stroke="#F2F2D1" stroke-width="2"/>
<path d="M42.9219 49.5507L43.6378 49.332L44.3538 52.068L43.5827 52.1775L42.9219 49.5507Z" stroke="#F2F2D1" stroke-width="2"/>
<path d="M42.9219 49.5507L43.6378 49.332L44.3538 52.068L43.5827 52.1775L42.9219 49.5507Z" stroke="#F2F2D1" stroke-width="2"/>
<path d="M44.5938 55.2421L45.3097 55.0234L46.3836 57.7597L45.2546 57.8689L44.5938 55.2421Z" fill="#F2F2D1"/>
<path d="M44.5938 55.2421L45.3097 55.0234L46.3836 57.7597L45.2546 57.8689L44.5938 55.2421Z" stroke="#F2F2D1" stroke-width="2"/>
<path d="M44.5938 55.2421L45.3097 55.0234L46.3836 57.7597L45.2546 57.8689L44.5938 55.2421Z" stroke="#F2F2D1" stroke-width="2"/>
<path d="M43.2969 54.4363L44.8646 53.1582L46.3864 58.08L45.2573 58.1892L43.2969 54.4363Z" fill="#F2F2D1" stroke="#F2F2D1" stroke-width="2"/>
<path d="M47.2188 60.2773L47.9347 60.0586L49.2473 62.9041H47.8796L47.2188 60.2773Z" fill="#F2F2D1"/>
<path d="M47.2188 60.2773L47.9347 60.0586L49.7387 64.3418L47.8796 62.9041L47.2188 60.2773Z" stroke="#F2F2D1" stroke-width="2"/>
<path d="M46.5 60.496L47.216 60.2773L49.0199 63.7617L47.6264 64.241L46.5 60.496Z" fill="#F2F2D1" stroke="#F2F2D1" stroke-width="2"/>
<path d="M94.9536 76.4766L88.3906 78.3372H90.8965C90.9919 78.3372 93.641 77.0967 94.9536 76.4766Z" fill="#F2F2D1"/>
<path d="M94.9536 76.4766L88.3906 78.3372H90.8965C90.9919 78.3372 93.641 77.0967 94.9536 76.4766Z" stroke="#F2F2D1" stroke-width="2"/>
<path d="M94.9485 76.4766L85.9688 78.8812L90.8914 78.3372C90.9869 78.3372 93.636 77.0967 94.9485 76.4766Z" stroke="#F2F2D1" stroke-width="2"/>
<path d="M94.8343 76.1465L87.0781 78.226L91.3565 77.7882C91.4468 77.7882 93.5934 76.7301 94.8343 76.1465Z" stroke="#F2F2D1" stroke-width="2"/>
<path d="M82.88 78.1471C84.3991 78.2626 87.6386 77.7145 88.9947 77.5466C86.5559 62.5292 76.9857 61.164 80.9229 65.1413L82.6648 72.3306C82.2249 74.1413 82.5976 76.546 82.88 78.1471Z" fill="#F2F2D1"/>
<path d="M87.1921 77.7617L80.1562 78.8125L80.3988 80.1582C80.4885 80.1692 87.4359 79.433 87.1921 77.7617Z" fill="#F2F2D1"/>
<path d="M91.3734 76.9634C92.8486 77.0801 93.7143 77.772 95.0313 77.6027C92.2443 68.1761 88.2382 61.6255 90.5024 67.6971L90.154 71.5313C90.7218 73.5759 91.099 75.3488 91.3734 76.9634Z" fill="#F2F2D1"/>
<path d="M101.031 73.7415C102.151 73.1754 103.207 72.612 104.134 71.8809" stroke="#F2F2D1" stroke-width="2"/>
<path d="M101.031 73.7415C102.151 73.1754 103.207 72.612 104.134 71.8809" stroke="#F2F2D1" stroke-width="2"/>
<path d="M101.031 73.7415C102.151 73.1754 103.207 72.612 104.134 71.8809" stroke="#F2F2D1" stroke-width="2"/>
<path d="M100.73 74.5298L100.078 73.6102L104.433 71.5332L104.955 73.6102L103.235 74.6393L100.73 74.5298Z" fill="#F2F2D1"/>
<path d="M101.993 74.7242L101.516 73.6297L103.544 72.4258L104.379 73.4108L101.993 74.7242Z" stroke="#F2F2D1" stroke-width="2"/>
<path d="M101.993 74.7242L101.516 73.6297L103.544 72.4258L104.379 73.4108L101.993 74.7242Z" stroke="#F2F2D1" stroke-width="2"/>
<path d="M101.993 74.7242L101.516 73.6297L103.544 72.4258L104.379 73.4108L101.993 74.7242Z" stroke="#F2F2D1" stroke-width="2"/>
<path d="M94.9531 76.8057V76.5868L97.459 75.2734L97.6976 76.3679L94.9531 76.8057Z" fill="#F2F2D1"/>
<path d="M94.9531 76.8057V76.5868L97.459 75.2734L97.6976 76.3679L94.9531 76.8057Z" stroke="#F2F2D1" stroke-width="2"/>
<path d="M94.9531 76.8057V76.5868L97.459 75.2734L97.6976 76.3679L94.9531 76.8057Z" stroke="#F2F2D1" stroke-width="2"/>
<path d="M95.2037 77.6036L93.9844 76.1657L103.042 73.6094L101.997 76.8047L95.2037 77.6036Z" fill="#F2F2D1" stroke="#F2F2D1" stroke-width="2"/>
<path d="M99.5549 81.2541L97.4673 82.6478L98.0674 85.4353L100.481 84.5668L99.5549 81.2541Z" fill="#F2F2D1" stroke="#F2F2D1" stroke-width="2"/>
<path d="M89.133 77.3351C85.9842 59.8215 69.6729 49.304 46.4141 56.2114" stroke="#F87802" stroke-width="2" stroke-linecap="square"/>
<path d="M95.6967 75.8022C91.8633 55.8248 70.0473 43.0053 44.625 50.9574" stroke="#F87802" stroke-width="2" stroke-linecap="square"/>
<path d="M81.8552 78.2122C78.5697 61.6125 65.5075 56.3224 49.3984 61.7948" stroke="#F87802" stroke-width="2" stroke-linecap="square"/>
<path d="M101.735 72.652C94.456 47.2598 70.5182 39.2172 43.7891 45.1555" stroke="#F87802" stroke-width="2" stroke-linecap="square"/>
</g>
<path d="M0 143.311V140.015L3.18318 139.45V119.766L0 119.201V115.887H14.1693C16.4693 115.887 18.4406 116.213 20.0833 116.866C21.7263 117.519 22.9858 118.454 23.862 119.672C24.7518 120.89 25.1968 122.353 25.1968 124.061C25.1968 125.668 24.7586 127.106 23.8824 128.374C23.0063 129.643 21.7878 130.641 20.2271 131.369C18.6665 132.097 16.8662 132.468 14.8263 132.48H9.17914V139.45L12.3828 140.015V143.311H0ZM19.2414 143.311L14.2103 131.463L19.6111 130.239L23.9644 139.468L26.5108 140.015V143.311H19.2414ZM9.17914 128.243H14.0665C15.7915 128.243 17.0786 127.91 17.9271 127.244C18.7898 126.566 19.221 125.587 19.221 124.306C19.221 123.038 18.7965 122.027 17.9476 121.273C17.0991 120.507 15.8395 120.124 14.1693 120.124H9.17914V128.243ZM39.6944 143.706C37.5725 143.706 35.7175 143.279 34.1296 142.425C32.5414 141.559 31.3094 140.372 30.4333 138.865C29.5706 137.359 29.1394 135.638 29.1394 133.705V132.951C29.1394 130.929 29.5501 129.14 30.3714 127.583C31.1928 126.014 32.3498 124.783 33.8419 123.891C35.3478 122.987 37.1209 122.542 39.1604 122.554C41.1731 122.554 42.8638 122.918 44.2325 123.647C45.6016 124.375 46.6421 125.423 47.3539 126.792C48.066 128.161 48.4219 129.818 48.4219 131.764V134.759H35.3616L35.3206 134.872C35.4026 135.764 35.6422 136.561 36.0391 137.264C36.4497 137.955 37.0247 138.501 37.7641 138.903C38.5034 139.292 39.4 139.487 40.4542 139.487C41.5494 139.487 42.5694 139.361 43.5141 139.111C44.4722 138.847 45.403 138.464 46.3067 137.961L47.9289 141.352C47.0118 142.03 45.855 142.595 44.4587 143.047C43.0758 143.486 41.488 143.706 39.6944 143.706ZM35.4026 131.124H42.8157V130.634C42.8157 129.806 42.6924 129.096 42.446 128.506C42.2135 127.903 41.8301 127.439 41.2961 127.112C40.7758 126.786 40.0983 126.623 39.2632 126.623C38.4691 126.623 37.7984 126.817 37.2509 127.207C36.7031 127.583 36.272 128.104 35.9571 128.77C35.656 129.435 35.4506 130.189 35.3411 131.03L35.4026 131.124ZM59.7367 143.706C57.9707 143.706 56.451 143.292 55.178 142.463C53.9185 141.622 52.9533 140.454 52.2825 138.96C51.6118 137.453 51.2764 135.695 51.2764 133.686V133.29C51.2764 131.143 51.6118 129.266 52.2825 127.658C52.9671 126.051 53.939 124.802 55.1985 123.91C56.4581 123.006 57.964 122.554 59.7162 122.554C60.9347 122.554 62.0024 122.78 62.9195 123.232C63.8369 123.672 64.6307 124.299 65.3018 125.116V117.808L62.0982 117.243V113.928H65.3018H71.2978V139.45L74.1728 140.015V143.311H66.1027L65.6506 140.824C64.9526 141.766 64.1176 142.482 63.1457 142.972C62.1872 143.461 61.051 143.706 59.7367 143.706ZM61.5232 139.43C62.3583 139.43 63.0909 139.267 63.7203 138.941C64.3501 138.614 64.8774 138.144 65.3018 137.528V128.883C64.8908 128.23 64.3706 127.728 63.7412 127.376C63.1114 127.012 62.3858 126.83 61.5642 126.83C60.5651 126.83 59.7434 127.106 59.1002 127.658C58.4704 128.198 58.005 128.952 57.7039 129.919C57.4162 130.886 57.2723 132.01 57.2723 133.29V133.686C57.2723 135.469 57.601 136.875 58.258 137.905C58.9153 138.922 60.0035 139.43 61.5232 139.43ZM86.6786 143.706C84.5567 143.706 82.7017 143.279 81.1138 142.425C79.5256 141.559 78.2936 140.372 77.4175 138.865C76.5548 137.359 76.1236 135.638 76.1236 133.705V132.951C76.1236 130.929 76.5343 129.14 77.356 127.583C78.1773 126.014 79.334 124.783 80.8261 123.891C82.332 122.987 84.1051 122.542 86.1449 122.554C88.1573 122.554 89.848 122.918 91.2171 123.647C92.5858 124.375 93.6263 125.423 94.3384 126.792C95.0502 128.161 95.4061 129.818 95.4061 131.764V134.759H82.3458L82.3048 134.872C82.3868 135.764 82.6264 136.561 83.0236 137.264C83.4343 137.955 84.0093 138.501 84.7483 138.903C85.4876 139.292 86.3845 139.487 87.4384 139.487C88.5336 139.487 89.5536 139.361 90.4983 139.111C91.4567 138.847 92.3876 138.464 93.2909 137.961L94.9134 141.352C93.996 142.03 92.8392 142.595 91.4429 143.047C90.06 143.486 88.4721 143.706 86.6786 143.706ZM82.3868 131.124H89.7999V130.634C89.7999 129.806 89.6769 129.096 89.4306 128.506C89.1977 127.903 88.8142 127.439 88.2806 127.112C87.7604 126.786 87.0825 126.623 86.2474 126.623C85.4533 126.623 84.7825 126.817 84.2351 127.207C83.6873 127.583 83.2562 128.104 82.9413 128.77C82.6402 129.435 82.4348 130.189 82.3253 131.03L82.3868 131.124ZM122.574 143.706C119.672 143.706 117.146 143.154 114.997 142.049C112.847 140.931 111.184 139.355 110.007 137.321C108.843 135.274 108.261 132.857 108.261 130.069V129.147C108.261 126.485 108.822 124.13 109.945 122.083C111.081 120.024 112.697 118.411 114.791 117.243C116.886 116.075 119.378 115.491 122.266 115.491C124.292 115.491 126.188 115.755 127.954 116.282C129.734 116.809 131.322 117.613 132.718 118.693V125.323H128.262L127.646 121.16C127.194 120.859 126.702 120.601 126.168 120.388C125.634 120.175 125.052 120.012 124.422 119.898C123.806 119.785 123.135 119.729 122.41 119.729C120.712 119.729 119.254 120.112 118.036 120.878C116.817 121.644 115.879 122.73 115.223 124.136C114.579 125.53 114.257 127.188 114.257 129.109V130.069C114.257 131.991 114.599 133.654 115.284 135.061C115.969 136.467 116.94 137.56 118.2 138.338C119.46 139.104 120.952 139.487 122.677 139.487C123.539 139.487 124.402 139.399 125.264 139.223C126.14 139.035 126.934 138.796 127.646 138.508L128.262 134.647H132.718V141.201C131.555 141.904 130.104 142.501 128.365 142.99C126.626 143.468 124.696 143.706 122.574 143.706ZM143.068 143.706C140.864 143.706 139.112 143.166 137.811 142.086C136.511 140.994 135.86 139.512 135.86 137.641C135.86 136.36 136.237 135.237 136.99 134.27C137.756 133.303 138.879 132.543 140.357 131.991C141.85 131.438 143.684 131.162 145.861 131.162H148.797V129.655C148.797 128.676 148.482 127.885 147.853 127.282C147.237 126.666 146.306 126.359 145.06 126.359C144.417 126.359 143.842 126.434 143.335 126.585C142.828 126.723 142.363 126.924 141.939 127.188L141.466 129.881H137.154L137.072 124.588C138.236 123.986 139.495 123.496 140.85 123.119C142.206 122.743 143.718 122.554 145.389 122.554C148.291 122.554 150.584 123.176 152.268 124.419C153.952 125.65 154.794 127.414 154.794 129.712V138.112C154.794 138.388 154.794 138.664 154.794 138.941C154.807 139.205 154.835 139.462 154.876 139.713L157.196 140.015V143.311H149.762C149.612 142.959 149.461 142.582 149.311 142.181C149.16 141.779 149.051 141.377 148.982 140.975C148.27 141.804 147.428 142.469 146.456 142.972C145.498 143.461 144.369 143.706 143.068 143.706ZM144.67 139.638C145.505 139.638 146.299 139.468 147.052 139.129C147.805 138.778 148.387 138.319 148.797 137.754V134.533H145.84C144.526 134.533 143.527 134.81 142.842 135.362C142.171 135.915 141.836 136.58 141.836 137.359C141.836 138.087 142.082 138.652 142.575 139.054C143.082 139.443 143.78 139.638 144.67 139.638ZM159.106 143.311V140.015L162 139.45V126.811L158.798 126.246V122.931H167.567L167.814 125.624C168.524 124.645 169.415 123.891 170.482 123.364C171.564 122.824 172.811 122.554 174.221 122.554C175.642 122.554 176.861 122.843 177.876 123.421C178.9 123.998 179.667 124.871 180.176 126.039C180.858 124.946 181.749 124.092 182.844 123.477C183.94 122.862 185.226 122.554 186.704 122.554C188.895 122.554 190.62 123.238 191.881 124.607C193.153 125.976 193.79 128.06 193.79 130.86V139.45L196.684 140.015V143.311H185.205V140.015L187.792 139.45V130.842C187.792 129.335 187.52 128.293 186.972 127.715C186.439 127.125 185.658 126.83 184.633 126.83C183.7 126.83 182.912 127.075 182.268 127.564C181.625 128.042 181.162 128.676 180.872 129.467V139.45L183.297 140.015V143.311H172.475V140.015L174.896 139.45V130.842C174.896 129.373 174.624 128.337 174.076 127.734C173.543 127.131 172.748 126.83 171.694 126.83C170.846 126.83 170.111 126.987 169.496 127.301C168.881 127.615 168.376 128.066 167.976 128.657V139.45L170.563 140.015V143.311H159.106ZM198.575 151.146V147.831L201.469 147.266V126.811L198.267 126.246V122.931H206.972L207.262 125.304C207.919 124.425 208.711 123.747 209.644 123.27C210.573 122.793 211.683 122.554 212.969 122.554C214.765 122.554 216.295 123.006 217.571 123.91C218.843 124.802 219.815 126.051 220.486 127.658C221.168 129.266 221.511 131.143 221.511 133.29V133.686C221.511 135.695 221.168 137.453 220.486 138.96C219.815 140.454 218.836 141.622 217.549 142.463C216.277 143.292 214.736 143.706 212.927 143.706C211.736 143.706 210.683 143.512 209.767 143.122C208.863 142.72 208.089 142.137 207.445 141.371V147.266L210.34 147.831V151.146H198.575ZM211.142 139.487C212.676 139.487 213.786 138.966 214.468 137.924C215.167 136.882 215.517 135.469 215.517 133.686V133.29C215.517 131.997 215.358 130.873 215.044 129.919C214.729 128.952 214.241 128.198 213.584 127.658C212.941 127.106 212.114 126.83 211.1 126.83C210.28 126.83 209.555 126.999 208.923 127.338C208.308 127.678 207.816 128.161 207.445 128.789V137.717C207.816 138.294 208.308 138.734 208.923 139.035C209.555 139.336 210.294 139.487 211.142 139.487ZM235.064 143.706C232.873 143.706 230.993 143.267 229.417 142.388C227.844 141.509 226.639 140.291 225.805 138.734C224.967 137.164 224.55 135.362 224.55 133.328V132.932C224.55 130.911 224.967 129.121 225.805 127.564C226.639 125.995 227.837 124.77 229.399 123.891C230.972 123 232.849 122.554 235.026 122.554C237.227 122.554 239.111 123 240.673 123.891C242.232 124.77 243.43 125.988 244.264 127.546C245.101 129.102 245.518 130.898 245.518 132.932V133.328C245.518 135.362 245.101 137.164 244.264 138.734C243.43 140.291 242.232 141.509 240.673 142.388C239.111 143.267 237.241 143.706 235.064 143.706ZM235.064 139.487C236.107 139.487 236.955 139.23 237.613 138.715C238.27 138.2 238.754 137.484 239.069 136.568C239.383 135.638 239.542 134.558 239.542 133.328V132.932C239.542 131.727 239.383 130.666 239.069 129.749C238.754 128.82 238.263 128.098 237.591 127.583C236.934 127.056 236.079 126.792 235.026 126.792C233.997 126.792 233.149 127.056 232.477 127.583C231.806 128.098 231.315 128.82 231 129.749C230.7 130.666 230.548 131.727 230.548 132.932V133.328C230.548 134.558 230.7 135.638 231 136.568C231.315 137.497 231.806 138.219 232.477 138.734C233.149 139.236 234.011 139.487 235.064 139.487Z" fill="#F87802"/>
</g>
<defs>
<filter id="filter0_d_604_1823" x="31.2891" y="0.00195312" width="167.703" height="110.801" filterUnits="userSpaceOnUse" color-interpolation-filters="sRGB">
<feFlood flood-opacity="0" result="BackgroundImageFix"/>
<feColorMatrix in="SourceAlpha" type="matrix" values="0 0 0 0 0 0 0 0 0 0 0 0 0 0 0 0 0 0 127 0" result="hardAlpha"/>
<feOffset dy="4"/>
<feGaussianBlur stdDeviation="2"/>
<feComposite in2="hardAlpha" operator="out"/>
<feColorMatrix type="matrix" values="0 0 0 0 0 0 0 0 0 0 0 0 0 0 0 0 0 0 0.25 0"/>
<feBlend mode="normal" in2="BackgroundImageFix" result="effect1_dropShadow_604_1823"/>
<feBlend mode="normal" in="SourceGraphic" in2="effect1_dropShadow_604_1823" result="shape"/>
</filter>
<clipPath id="clip0_604_1823">
<rect width="246" height="151" fill="white"/>
</clipPath>
</defs>
</svg>
