<svg width="282" height="365" viewBox="0 0 282 365" fill="none" xmlns="http://www.w3.org/2000/svg">
<g clip-path="url(#clip0_794_8517)">
<path d="M270.86 5.21094H55.3434C52.2348 5.21094 49.7148 7.74053 49.7148 10.8609V354.382C49.7148 357.502 52.2348 360.032 55.3434 360.032H270.86C273.969 360.032 276.489 357.502 276.489 354.382V10.8609C276.489 7.74053 273.969 5.21094 270.86 5.21094Z" stroke="#F69D40" stroke-width="10"/>
<path d="M91.6914 70.4238H242.793" stroke="#25422B" stroke-width="6" stroke-linecap="round"/>
<path d="M91.6914 98.7676H242.793" stroke="#25422B" stroke-width="6" stroke-linecap="round"/>
<path d="M91.6914 120.027H242.793" stroke="#25422B" stroke-width="6" stroke-linecap="round"/>
<path d="M91.6914 143.648H242.793" stroke="#25422B" stroke-width="6" stroke-linecap="round"/>
<path d="M91.6914 190.891H242.793" stroke="#25422B" stroke-width="6" stroke-linecap="round"/>
<path d="M91.6914 167.268H242.793" stroke="#25422B" stroke-width="6" stroke-linecap="round"/>
<path d="M81.0665 224.348C77.5567 225.189 74.4124 228.004 73.279 231.331C72.4746 233.744 72.7306 237.437 73.8274 239.594C76.0942 244.055 81.5418 246.468 86.2948 245.152C89.5853 244.237 92.8027 241.13 93.6437 238.059C95.362 231.807 91.779 225.664 85.6367 224.348C83.443 223.909 83.0043 223.873 81.0665 224.348Z" fill="#25422B"/>
<path d="M237.549 224.312C231.334 225.884 227.861 231.843 229.579 238.059C230.42 241.13 233.637 244.237 236.928 245.152C241.681 246.468 247.128 244.055 249.395 239.594C250.492 237.437 250.748 233.744 249.944 231.331C248.298 226.432 242.449 223.105 237.549 224.312Z" fill="#25422B"/>
<path d="M79.7864 248.294C77.5196 248.55 74.9237 249.099 74.0462 249.501C72.145 250.342 70.3535 252.609 70.0245 254.656C69.8782 255.57 70.3901 260.725 71.4869 268.988L73.2053 281.894L77.1905 294.874L81.2123 307.853L82.3091 321.015C82.8941 328.254 83.5522 334.726 83.7715 335.384C83.9909 336.042 84.6856 336.956 85.3071 337.431C87.7202 339.259 90.4988 338.967 92.5097 336.7C93.5334 335.53 93.6066 335.237 93.6066 332.788C93.57 331.325 93.0947 324.635 92.5097 317.907L91.486 305.659L89.1095 297.25C87.7933 292.643 86.7696 288.804 86.8061 288.768C86.8793 288.695 88.5245 292.387 90.4623 296.958L94.0453 305.294L95.654 319.735C96.5315 327.669 97.4455 334.726 97.6649 335.384C97.8842 336.042 98.5789 336.956 99.2004 337.431C101.613 339.259 104.392 338.967 106.403 336.7C107.865 335.018 107.865 334.543 105.891 316.993L104.282 302.734L99.1639 291.218C94.3378 280.322 94.0453 279.518 93.6431 276.227C93.4237 274.326 93.1313 272.206 93.0216 271.584C92.8753 270.597 91.9613 269.61 87.9395 266.1C83.5156 262.297 82.4188 261.237 83.2963 261.712C83.4425 261.786 86.7696 263.358 90.6816 265.186L97.8111 268.549L109.584 270.158C118.395 271.365 121.686 271.694 122.6 271.438C126.256 270.451 126.877 265.296 123.514 263.687C122.856 263.394 117.371 262.444 111.266 261.603L100.224 260.104L93.3506 256.813C87.8299 254.144 86.8061 253.559 88.1224 253.742C89.0364 253.888 90.0601 254.071 90.4257 254.144C91.1935 254.364 91.1935 254.254 90.4623 252.536C89.6214 250.488 87.8299 248.843 85.7824 248.258C84.7953 247.965 83.9544 247.709 83.9544 247.746C83.9178 247.783 82.0532 248.002 79.7864 248.294Z" fill="#25422B"/>
<path d="M236.561 248.477C235.354 248.952 233.709 250.561 233.014 251.914C232.429 253.011 231.406 259.774 231.808 259.774C231.954 259.774 234.002 258.312 236.415 256.521C238.791 254.729 240.802 253.303 240.875 253.376C240.948 253.449 238.133 256.74 234.55 260.652L228.115 267.818H219.304C209.652 267.818 208.738 268.001 207.568 269.975C206.142 272.425 207.385 275.423 210.164 276.227C211.041 276.483 215.099 276.593 221.607 276.52C231.113 276.41 231.771 276.373 232.539 275.679C233.014 275.277 236.341 271.657 239.961 267.635C243.581 263.613 246.871 259.994 247.237 259.592C247.968 258.86 247.968 258.86 247.493 259.774C246.432 261.895 237.109 277.616 236.305 278.713C235.025 280.432 233.672 280.98 230.784 280.98H228.225L223.582 291.839L218.938 302.734L217.33 317.176C215.501 333.08 215.465 335.274 216.854 336.773C219.011 339.113 222.156 339.259 224.349 337.065C225.007 336.371 225.666 335.457 225.775 334.981C225.885 334.542 226.689 327.669 227.567 319.735L229.175 305.293L232.758 296.957C234.696 292.387 236.378 288.695 236.415 288.768C236.451 288.804 235.464 292.643 234.148 297.25C232.868 301.893 231.808 306.281 231.808 307.048C231.808 307.816 232.137 309.096 232.576 309.937C234.952 314.58 247.383 336.151 248.187 336.992C251.551 340.612 257.73 337.577 256.926 332.714C256.816 332.093 253.562 325.951 249.686 319.15C245.811 312.35 242.667 306.5 242.703 306.207C242.703 305.622 248.59 285.806 249.467 283.357C249.759 282.552 250.783 275.935 251.77 268.659C253.269 257.142 253.452 255.241 253.087 253.961C252.538 252.206 251.149 250.451 249.613 249.684C247.2 248.404 238.681 247.636 236.561 248.477Z" fill="#25422B"/>
<path d="M130.316 266.942C130.352 268.112 130.206 269.465 130.06 269.903C129.804 270.635 129.914 270.708 131.705 270.891C135.142 271.293 157.92 271.841 180.259 272.097L202.013 272.316L202.488 270.342C202.707 269.245 203.256 267.929 203.658 267.381C204.06 266.832 204.389 266.284 204.389 266.174C204.389 266.064 196.931 265.991 187.863 265.991C172.215 265.955 151.631 265.589 136.897 265.041L130.316 264.785V266.942Z" fill="#25422B"/>
<path d="M113.676 276.484C113.054 278.129 112.25 281.785 112.25 283.028C112.25 284.82 113.493 286.1 115.175 286.1C116.93 286.1 117.99 285.076 118.319 283.211C118.502 282.005 119.709 277.727 120.147 276.74C120.257 276.484 119.343 276.191 117.551 275.899C113.932 275.387 114.115 275.351 113.676 276.484Z" fill="#25422B"/>
<path d="M212.979 281.419C212.906 281.675 212.686 282.991 212.467 284.307C212.248 285.624 211.663 287.891 211.151 289.39C210.017 292.753 210.017 293.594 211.151 294.691C212.321 295.897 214.185 295.934 215.282 294.764C216.306 293.667 217.805 289.316 218.463 285.404C219.304 280.651 219.487 280.98 216.087 280.98C214.039 280.98 213.089 281.127 212.979 281.419Z" fill="#25422B"/>
<rect x="1" y="-1" width="52.0606" height="52.1506" rx="26.0303" transform="matrix(-1 0 0 1 190.113 242.6)" fill="#F3EAC1" stroke="#0A3D0A" stroke-width="2"/>
<path d="M177.037 267.952V276.118C177.037 276.521 176.795 276.885 176.423 277.041L164.225 282.152C163.992 282.249 163.731 282.255 163.494 282.168L149.463 277.024C149.069 276.88 148.807 276.505 148.807 276.085V268.057C148.807 267.987 148.815 267.918 148.83 267.85V267.85C148.962 267.259 149.606 266.94 150.156 267.194L161.981 272.644M161.981 272.644L181.893 264.885C182.692 264.574 182.754 263.467 181.995 263.068L163.379 253.289C163.092 253.138 162.751 253.136 162.462 253.282L144.065 262.602C143.319 262.98 143.339 264.052 144.099 264.402L161.981 272.644Z" stroke="#DB8D3C" stroke-width="2"/>
</g>
<defs>
<clipPath id="clip0_794_8517">
<rect width="282" height="365" fill="white"/>
</clipPath>
</defs>
</svg>
