<svg width="282" height="358" viewBox="0 0 282 358" fill="none" xmlns="http://www.w3.org/2000/svg">
<g clip-path="url(#clip0_794_8558)">
<path d="M272.002 5H80.5508C77.7894 5 75.5508 7.23858 75.5508 10V314C75.5508 316.761 77.7894 319 80.5508 319H272.002C274.763 319 277.002 316.761 277.002 314V10C277.002 7.23858 274.763 5 272.002 5Z" stroke="#F69D40" stroke-width="10"/>
<path d="M112.84 47H247.069" stroke="#25422B" stroke-width="6" stroke-linecap="round"/>
<path d="M112.84 72.084H247.069" stroke="#25422B" stroke-width="6" stroke-linecap="round"/>
<path d="M112.84 90.8965H247.069" stroke="#25422B" stroke-width="6" stroke-linecap="round"/>
<path d="M112.84 111.801H247.069" stroke="#25422B" stroke-width="6" stroke-linecap="round"/>
<path d="M112.84 153.607H247.069" stroke="#25422B" stroke-width="6" stroke-linecap="round"/>
<path d="M112.84 172.289H247.069" stroke="#25422B" stroke-width="6" stroke-linecap="round"/>
<path d="M112.84 132.703H247.069" stroke="#25422B" stroke-width="6" stroke-linecap="round"/>
<path d="M30.4014 239.043C29.9137 239.016 29.4682 239.125 29.0613 239.337C30.3896 211.294 53.1506 189 81 189C109.481 189 132.639 212.316 132.996 241.252C131.725 241.831 130.543 242.806 129.439 244.052C128.133 245.524 126.888 247.43 125.693 249.661C123.303 254.121 121.047 260.002 118.884 266.623C115.934 275.651 113.122 286.166 110.364 296.479C109.079 301.281 107.806 306.039 106.537 310.584C104.534 317.755 102.538 324.399 100.509 329.889C98.4696 335.409 96.4363 339.652 94.3965 342.104C93.3785 343.327 92.439 344.006 91.5921 344.248C90.8024 344.474 89.9637 344.358 88.9967 343.686C87.993 342.988 86.8788 341.703 85.6764 339.646C84.4808 337.6 83.2349 334.856 81.9391 331.314L81.0204 328.803L80.0659 331.301C78.7157 334.834 77.3956 337.444 76.1181 339.265C74.8329 341.096 73.6537 342.04 72.6177 342.398C71.6361 342.738 70.6432 342.601 69.5567 341.929C68.4358 341.236 67.2527 339.99 66.0264 338.192C63.5772 334.601 61.1473 329.098 58.7567 322.421C56.3724 315.762 54.0517 308.005 51.802 299.949C50.175 294.124 48.5834 288.134 47.0326 282.298C44.3055 272.035 41.7046 262.247 39.2598 254.662C37.3504 248.739 35.4898 244 33.6692 241.415C32.793 240.171 31.7146 239.114 30.4014 239.043Z" fill="#F3EAC1" stroke="#F69D40" stroke-width="2"/>
<path d="M133 241.93C133 271.179 109.702 294.86 81 294.86C52.2975 294.86 29 271.179 29 241.93C29 212.681 52.2975 189 81 189C109.702 189 133 212.681 133 241.93Z" fill="#F3EAC1" stroke="#F69D40" stroke-width="2"/>
<path d="M59.6836 315.09C59.6836 310.672 63.2653 307.09 67.6836 307.09H80.9994H94.3152C98.7335 307.09 102.315 310.672 102.315 315.09V344.239C102.315 346.827 101.076 349.215 98.921 350.512C96.6314 351.89 93.5435 353.583 90.2562 354.918C86.9532 356.259 83.5309 357.204 80.5493 357.16C77.6967 357.118 74.4395 356.158 71.2962 354.834C68.1677 353.517 65.228 351.871 63.0307 350.525C60.9039 349.222 59.6836 346.849 59.6836 344.283V315.09Z" fill="#F3EAC1" stroke="#F69D40" stroke-width="2"/>
<g filter="url(#filter0_d_794_8558)">
<path d="M59 341C75.2602 353.984 85.7646 353.713 103.319 341.883M59 336.5C75.2602 349.484 85.7646 349.063 103.319 337.234M59.5 325.5C75.7602 338.484 84.9455 338.329 102.5 326.5M59 331.5C75.2602 344.484 85.7646 343.485 103.319 331.655" stroke="#25422B" stroke-opacity="0.79" stroke-width="1.5" shape-rendering="crispEdges"/>
</g>
<path d="M58.5623 320.485C58.5122 314.46 58.0133 311.045 56.2678 305.419C55.6584 303.455 57.0972 301.436 59.1536 301.436H104.15C106.353 301.436 107.908 304.314 105.747 304.741C104.179 305.051 103.516 304.504 103.445 319.465C103.437 321.091 102.143 322.442 100.518 322.485L61.6673 323.518C59.9674 323.563 58.5764 322.185 58.5623 320.485Z" fill="#F3EAC1"/>
<path d="M101.091 305.938H59.6322C58.4233 305.938 57.3325 305.212 56.8653 304.097L51.7196 291.816C51.663 291.681 51.5933 291.546 51.5185 291.42C44.0815 278.91 52.4491 273.996 42.5625 273.23L114.235 271.649C116.837 271.592 118.451 274.792 117.107 277.02C112.361 284.886 107.85 296.082 103.738 304.317C103.238 305.319 102.211 305.938 101.091 305.938Z" fill="#F3EAC1"/>
<ellipse cx="80.5" cy="322.5" rx="16.5" ry="3.5" fill="#F69D40" fill-opacity="0.4"/>
<path d="M94 321.5C94 322.881 87.9558 324 80.5 324C73.0442 324 67 322.881 67 321.5C67 320.119 73.0442 319 80.5 319C87.9558 319 94 320.119 94 321.5Z" fill="#F69D40"/>
<path d="M94 321.5C94 322.881 87.9558 324 80.5 324C73.0442 324 67 322.881 67 321.5C67 320.119 73.0442 319 80.5 319C87.9558 319 94 320.119 94 321.5Z" stroke="#50674E"/>
<path d="M77.1836 214.738V211.531C77.1836 209.874 78.5267 208.531 80.1836 208.531H82.3007C83.9576 208.531 85.3007 209.874 85.3007 211.531V214.738" stroke="#084014" stroke-width="2"/>
<path d="M77.1836 267.738V270.945C77.1836 272.602 78.5267 273.945 80.1836 273.945H82.3007C83.9576 273.945 85.3007 272.602 85.3007 270.945V267.738" stroke="#084014" stroke-width="2"/>
<path d="M90.2965 266.104L93.0766 269.653C94.0928 270.95 95.9652 271.185 97.2702 270.178L98.7957 269.002C100.108 267.99 100.351 266.106 99.3395 264.794L97.4808 262.384" stroke="#084014" stroke-width="2"/>
<path d="M101.633 259.205L104.055 261.049C105.373 262.053 107.255 261.799 108.259 260.481L109.412 258.966C110.416 257.648 110.162 255.766 108.844 254.762L106.422 252.918" stroke="#F69D40"/>
<path d="M72.1762 266.276L69.396 269.825C68.3798 271.122 66.5075 271.356 65.2025 270.35L63.677 269.174C62.3649 268.162 62.1214 266.278 63.1331 264.966L64.9918 262.556" stroke="#084014" stroke-width="2"/>
<path d="M60.8394 259.379L58.4179 261.223C57.0998 262.227 55.2174 261.972 54.2135 260.654L53.0602 259.14C52.0563 257.822 52.311 255.94 53.6291 254.936L56.0506 253.091" stroke="#084014" stroke-width="2"/>
<path d="M54.7687 248.601L50.2925 249.138C48.6563 249.334 47.1682 248.173 46.9595 246.539L46.73 244.741C46.5147 243.054 47.7431 241.525 49.4368 241.373L53.5692 241.001" stroke="#084014" stroke-width="2"/>
<path d="M54.0361 235.887L50.4383 234.505C48.8492 233.895 48.086 232.086 48.7576 230.521L49.4618 228.881C50.1155 227.358 51.8796 226.654 53.402 227.308L56.199 228.509" stroke="#084014" stroke-width="2"/>
<path d="M101.458 259.379L103.879 261.223C105.197 262.227 107.079 261.972 108.083 260.654L109.237 259.14C110.241 257.822 109.986 255.94 108.668 254.936L106.246 253.091" stroke="#084014" stroke-width="2"/>
<path d="M107.528 248.601L112.004 249.138C113.641 249.334 115.129 248.173 115.337 246.539L115.567 244.741C115.782 243.054 114.554 241.525 112.86 241.373L108.728 241.001" stroke="#084014" stroke-width="2"/>
<path d="M108.261 235.887L111.859 234.505C113.448 233.895 114.211 232.086 113.539 230.521L112.835 228.881C112.181 227.358 110.417 226.654 108.895 227.308L106.098 228.509" stroke="#084014" stroke-width="2"/>
<path d="M57.8711 226.629L54.4633 223.677C53.2177 222.598 53.0755 220.717 54.1448 219.463L55.3211 218.083C56.4246 216.789 58.3818 216.67 59.6339 217.821L62.6888 220.629" stroke="#084014" stroke-width="2"/>
<path d="M65.8632 218.461L64.4662 214.869C63.8492 213.283 64.6746 211.501 66.2839 210.946L67.9714 210.364C69.5377 209.824 71.2454 210.655 71.7857 212.222L72.7783 215.099" stroke="#084014" stroke-width="2"/>
<path d="M104.582 226.629L107.99 223.677C109.235 222.598 109.378 220.717 108.308 219.463L107.132 218.083C106.029 216.789 104.071 216.67 102.819 217.821L99.7644 220.629" stroke="#084014" stroke-width="2"/>
<path d="M96.5861 218.461L97.983 214.869C98.6 213.283 97.7746 211.501 96.1653 210.946L94.4778 210.364C92.9115 209.824 91.2038 210.655 90.6635 212.222L89.6709 215.099" stroke="#084014" stroke-width="2"/>
<path d="M59.7538 323C59.0872 330.333 58.2538 345.3 60.2538 346.5" stroke="#F69D40" stroke-width="2"/>
<path d="M102.399 323C102.93 330.489 103.595 345.774 102 347" stroke="#F69D40" stroke-width="2"/>
<circle cx="230.803" cy="269.659" r="9.65854" fill="#F8A402"/>
<path d="M247.488 291.657C247.488 297.018 235.959 295.904 230.642 295.904C225.326 295.904 215 297.018 215 291.657C215 286.297 225.326 281.951 230.642 281.951C235.959 281.951 247.488 286.297 247.488 291.657Z" fill="#F8A402"/>
</g>
<defs>
<filter id="filter0_d_794_8558" x="56.5312" y="324.914" width="49.207" height="30.584" filterUnits="userSpaceOnUse" color-interpolation-filters="sRGB">
<feFlood flood-opacity="0" result="BackgroundImageFix"/>
<feColorMatrix in="SourceAlpha" type="matrix" values="0 0 0 0 0 0 0 0 0 0 0 0 0 0 0 0 0 0 127 0" result="hardAlpha"/>
<feOffset dy="2"/>
<feGaussianBlur stdDeviation="1"/>
<feComposite in2="hardAlpha" operator="out"/>
<feColorMatrix type="matrix" values="0 0 0 0 0 0 0 0 0 0 0 0 0 0 0 0 0 0 0.11 0"/>
<feBlend mode="normal" in2="BackgroundImageFix" result="effect1_dropShadow_794_8558"/>
<feBlend mode="normal" in="SourceGraphic" in2="effect1_dropShadow_794_8558" result="shape"/>
</filter>
<clipPath id="clip0_794_8558">
<rect width="282" height="358" fill="white"/>
</clipPath>
</defs>
</svg>
