<svg width="282" height="324" viewBox="0 0 282 324" fill="none" xmlns="http://www.w3.org/2000/svg">
<g clip-path="url(#clip0_794_8537)">
<path d="M272.002 5H80.5508C77.7894 5 75.5508 7.23858 75.5508 10V314C75.5508 316.761 77.7894 319 80.5508 319H272.002C274.763 319 277.002 316.761 277.002 314V10C277.002 7.23858 274.763 5 272.002 5Z" stroke="#F69D40" stroke-width="10"/>
<path d="M235.47 269.244C241.888 269.244 247.092 263.72 247.092 256.906C247.092 250.092 241.888 244.568 235.47 244.568C229.051 244.568 223.848 250.092 223.848 256.906C223.848 263.72 229.051 269.244 235.47 269.244Z" fill="#F69D40"/>
<path d="M255.546 285.006C255.546 291.854 241.673 290.431 235.275 290.431C228.878 290.431 216.453 291.854 216.453 285.006C216.453 278.159 228.878 272.607 235.275 272.607C241.673 272.607 255.546 278.159 255.546 285.006Z" fill="#F69D40"/>
<path d="M235.472 268.124C240.14 268.124 243.924 264.107 243.924 259.151C243.924 254.195 240.14 250.178 235.472 250.178C230.804 250.178 227.02 254.195 227.02 259.151C227.02 264.107 230.804 268.124 235.472 268.124Z" fill="#F69D40"/>
<path d="M250.265 280.461C250.265 285.417 240.142 284.387 235.474 284.387C230.805 284.387 221.738 285.417 221.738 280.461C221.738 275.506 230.805 271.488 235.474 271.488C240.142 271.488 250.265 275.506 250.265 280.461Z" fill="#F69D40"/>
<path d="M112.84 62.7109H247.069" stroke="#25422B" stroke-width="6" stroke-linecap="round"/>
<path d="M112.84 87.7949H247.069" stroke="#25422B" stroke-width="6" stroke-linecap="round"/>
<path d="M112.84 106.607H247.069" stroke="#25422B" stroke-width="6" stroke-linecap="round"/>
<path d="M112.84 127.512H247.069" stroke="#25422B" stroke-width="6" stroke-linecap="round"/>
<path d="M104.383 267.562H161.475" stroke="#25422B" stroke-width="6" stroke-linecap="round"/>
<path d="M112.84 148.414H247.069" stroke="#25422B" stroke-width="6" stroke-linecap="round"/>
<path d="M5.76953 224.096L54.7717 185.264" stroke="#F69D40" stroke-width="10" stroke-linecap="round"/>
<path d="M23.3008 162.206C23.3008 189.604 47.164 212.217 77.1149 212.217C107.066 212.217 130.929 189.604 130.929 162.206C130.929 134.808 107.066 112.195 77.1149 112.195C47.164 112.195 23.3008 134.808 23.3008 162.206Z" fill="#F3EAC1" stroke="#F69D40" stroke-width="7"/>
<path d="M58.2403 151.46C54.1685 157.639 55.8013 166 61.8871 170.135C67.973 174.269 76.2074 172.611 80.2791 166.432C84.3509 160.252 82.7181 151.892 76.6323 147.757C70.5464 143.623 62.312 145.281 58.2403 151.46Z" stroke="#25422B" stroke-width="3"/>
<path d="M105.032 170.974C107.615 170.974 109.709 168.848 109.709 166.225C109.709 163.603 107.615 161.477 105.032 161.477C102.449 161.477 100.355 163.603 100.355 166.225C100.355 168.848 102.449 170.974 105.032 170.974Z" stroke="#25422B" stroke-width="3"/>
<path d="M55.4457 146.967C56.7964 146.967 57.8914 145.855 57.8914 144.483C57.8914 143.112 56.7964 142 55.4457 142C54.095 142 53 143.112 53 144.483C53 145.855 54.095 146.967 55.4457 146.967Z" stroke="#25422B" stroke-width="3"/>
<path d="M59.6602 149.628L56.957 146.535" stroke="#25422B" stroke-width="3"/>
<path d="M80.6408 175.611L76.3789 170.992" stroke="#25422B" stroke-width="3"/>
<path d="M81.3008 162.738L99.9654 165.178" stroke="#25422B" stroke-width="3"/>
<path d="M84.1511 182.129C86.118 182.129 87.7124 180.51 87.7124 178.513C87.7124 176.515 86.118 174.896 84.1511 174.896C82.1843 174.896 80.5898 176.515 80.5898 178.513C80.5898 180.51 82.1843 182.129 84.1511 182.129Z" stroke="#25422B" stroke-width="3"/>
</g>
<defs>
<clipPath id="clip0_794_8537">
<rect width="282" height="324" fill="white"/>
</clipPath>
</defs>
</svg>
