<svg width="577" height="286" viewBox="0 0 577 286" fill="none" xmlns="http://www.w3.org/2000/svg">
<g filter="url(#filter0_d_381_1751)">
<path d="M217.27 134.366C217.27 145.512 214.296 156.482 208.617 166.282C202.937 176.082 198.109 182.416 188.121 188.504C188.121 188.504 184.17 160.921 154.978 144.017C119.864 126.48 217.27 134.366 217.27 134.366Z" fill="#084014"/>
<path d="M198.438 125.521L198.438 125.522L198.44 125.517L198.438 125.521ZM197.769 129.078C197.926 128.804 198.097 128.581 198.106 128.269C198.099 128.594 197.931 128.822 197.769 129.078ZM197.341 130.287C197.282 130.44 197.274 130.473 197.23 130.632C197.207 130.716 197.155 130.772 197.083 130.828C197.157 130.338 197.478 129.702 197.646 129.318C197.684 129.233 197.725 129.155 197.768 129.081C197.695 129.413 197.458 129.984 197.341 130.287ZM189.913 129.783C189.873 130.024 189.774 130.605 189.616 130.739C189.618 130.75 189.621 130.762 189.623 130.773C189.612 130.722 189.599 130.671 189.589 130.626C189.515 130.283 189.517 129.802 189.582 129.442C189.585 129.424 189.588 129.406 189.591 129.387C189.592 129.382 189.593 129.376 189.593 129.371C189.595 129.357 189.598 129.342 189.599 129.328C189.6 129.322 189.6 129.316 189.601 129.311C189.603 129.295 189.605 129.279 189.606 129.263L189.608 129.252C189.63 129.026 189.638 128.767 189.684 128.551C189.691 128.52 189.699 128.489 189.708 128.459C189.732 128.531 189.761 128.599 189.793 128.665C189.796 128.675 189.799 128.689 189.802 128.705C189.821 128.798 189.843 128.971 189.864 129.032C189.891 129.284 189.957 129.523 189.913 129.783ZM184.457 119.911C184.463 119.895 184.487 119.829 184.486 119.747C184.487 119.83 184.463 119.896 184.457 119.911ZM200.023 127.687V127.683C200.023 127.664 200.022 127.645 200.021 127.626C200.021 127.622 200.02 127.617 200.02 127.612C200.02 127.597 200.018 127.583 200.017 127.569C200.017 127.564 200.017 127.56 200.016 127.556C200.014 127.538 200.012 127.52 200.01 127.502L200.01 127.493C200.007 127.479 200.005 127.464 200.003 127.45C200.002 127.445 200.002 127.44 200.001 127.435C199.998 127.42 199.996 127.404 199.993 127.389L199.992 127.384C199.989 127.368 199.985 127.351 199.981 127.335C199.981 127.33 199.98 127.326 199.979 127.322C199.976 127.309 199.973 127.296 199.97 127.284L199.966 127.272C199.962 127.256 199.958 127.24 199.953 127.225L199.951 127.216C199.947 127.203 199.943 127.191 199.939 127.178C199.937 127.174 199.936 127.169 199.935 127.165C199.93 127.152 199.926 127.138 199.921 127.126L199.919 127.119C199.914 127.105 199.909 127.09 199.903 127.075L199.898 127.063C199.894 127.052 199.889 127.041 199.885 127.03L199.88 127.018C199.874 127.004 199.868 126.99 199.862 126.977L199.858 126.968C199.852 126.957 199.847 126.946 199.842 126.935C199.84 126.93 199.838 126.926 199.836 126.922C199.831 126.91 199.825 126.899 199.82 126.888L199.816 126.881C199.809 126.868 199.802 126.854 199.796 126.841L199.789 126.829C199.784 126.819 199.779 126.81 199.773 126.801L199.767 126.788C199.76 126.776 199.752 126.763 199.745 126.751L199.739 126.741C199.734 126.731 199.729 126.722 199.723 126.712C199.72 126.708 199.717 126.703 199.715 126.698C199.709 126.69 199.703 126.68 199.698 126.672L199.692 126.661C199.684 126.649 199.677 126.638 199.67 126.626C199.667 126.621 199.663 126.616 199.66 126.611C199.656 126.603 199.651 126.596 199.646 126.589C199.643 126.584 199.64 126.578 199.636 126.573C199.631 126.565 199.626 126.557 199.62 126.549C199.614 126.539 199.608 126.531 199.602 126.521C199.599 126.516 199.596 126.511 199.593 126.507C199.588 126.499 199.583 126.492 199.577 126.484L199.573 126.477C199.397 126.212 199.218 125.963 199.139 125.658C198.877 124.661 199.626 123.373 198.999 122.222C198.372 121.07 197.118 121.304 197.118 121.304L197.121 121.303C196.924 121.317 196.725 121.364 196.537 121.431C196.434 121.432 196.329 121.426 196.218 121.41C195.987 121.376 195.759 121.337 195.526 121.316C194.967 121.265 194.408 121.297 193.85 121.353C193.31 121.409 192.892 121.368 192.349 121.39C191.808 121.412 191.35 121.234 190.811 121.284C190.795 121.28 190.12 121.24 189.841 121.177C189.229 121.04 188.897 120.874 188.254 120.874C187.565 120.874 187.209 120.677 186.979 120.452C186.631 120.11 186.399 120.112 186.387 120.103C186.401 120.065 186.416 120.027 186.429 119.987C186.575 119.542 186.429 119.573 186.429 119.573C186.002 119.545 185.697 119.611 185.477 119.718C185.393 119.704 185.305 119.694 185.216 119.688C185.196 119.674 185.175 119.662 185.153 119.651C185.153 118.963 184.537 118.839 183.947 119.014C183.666 119.098 183.395 119.038 183.371 118.892C183.349 118.752 183.246 118.779 183.248 118.859C183.254 119.164 183.341 119.271 183.98 119.346C184.089 119.359 184.174 119.382 184.243 119.411C184.158 119.437 184.073 119.47 183.989 119.51C183.725 119.637 183.448 119.62 183.4 119.479C183.356 119.346 183.259 119.388 183.274 119.466C183.329 119.767 183.432 119.859 184.075 119.832C184.207 119.827 184.309 119.841 184.387 119.868C184.271 120.019 184.119 120.122 183.981 120.252C183.871 120.356 183.822 120.488 183.758 120.619C183.66 120.825 183.427 120.985 183.284 121.163C183.182 121.288 183.012 121.415 182.918 121.55C182.744 121.798 182.71 121.886 182.552 122.019C182.375 122.168 182.433 122.293 182.524 122.466C182.738 122.873 182.966 122.924 182.966 122.924C182.968 122.931 182.97 122.938 182.974 122.944C183.027 123.046 183.282 123.056 183.45 122.954C183.553 122.891 183.964 122.924 184.093 122.97C184.157 122.992 184.214 123.02 184.266 123.052C184.595 123.252 184.761 123.61 185.232 123.69C185.453 123.728 186.357 124.339 186.406 124.571C186.484 124.939 186.543 125.585 186.78 125.962C186.788 125.974 186.796 125.986 186.803 125.998L186.813 126.01C186.818 126.018 186.824 126.026 186.831 126.034L186.84 126.046C186.849 126.057 186.857 126.067 186.866 126.077L186.869 126.08C186.878 126.09 186.888 126.1 186.898 126.11L186.907 126.119C186.914 126.126 186.922 126.132 186.93 126.139L186.94 126.147C186.95 126.156 186.962 126.165 186.973 126.173C187.105 126.263 187.242 126.338 187.334 126.475C187.409 126.588 187.387 126.744 187.452 126.863C187.538 127.023 187.666 127.116 187.831 127.191C187.995 127.266 188.275 127.364 188.515 127.371C188.553 127.604 188.588 127.84 188.602 128.074C188.609 128.179 188.612 128.3 188.618 128.426C188.619 128.435 188.619 128.445 188.619 128.454C188.62 128.464 188.62 128.474 188.621 128.484C188.622 128.498 188.622 128.512 188.623 128.525C188.624 128.533 188.624 128.54 188.624 128.548C188.626 128.568 188.627 128.589 188.629 128.609C188.629 128.615 188.629 128.622 188.63 128.628C188.631 128.643 188.632 128.659 188.633 128.675C188.634 128.682 188.634 128.689 188.635 128.696C188.637 128.713 188.638 128.731 188.64 128.748L188.641 128.76C188.643 128.781 188.645 128.802 188.648 128.822C188.648 128.828 188.65 128.834 188.65 128.839C188.652 128.855 188.654 128.87 188.656 128.885C188.657 128.892 188.658 128.898 188.659 128.904C188.662 128.922 188.664 128.94 188.668 128.958L188.668 128.965C188.672 128.984 188.676 129.004 188.679 129.022C188.681 129.027 188.682 129.033 188.683 129.038C188.686 129.052 188.689 129.066 188.693 129.08C188.694 129.085 188.696 129.09 188.697 129.096C188.701 129.114 188.707 129.132 188.712 129.148C188.738 129.233 188.774 129.309 188.815 129.382C188.835 129.445 188.861 129.506 188.886 129.569C188.913 129.791 188.874 130.209 188.83 130.44C188.784 130.682 188.799 131.08 188.556 131.137C188.275 131.203 188.143 131.54 188.12 131.771H189.179C189.375 131.793 189.458 131.647 189.482 131.501H190.157C190.448 131.539 190.489 131.155 190.463 130.977C190.509 130.979 190.552 130.964 190.582 130.907C190.689 130.703 190.608 130.415 190.568 130.202C190.493 129.814 190.495 129.14 190.561 128.733C190.608 128.438 190.602 128.159 190.664 127.881L190.665 127.879C190.676 127.828 190.689 127.778 190.705 127.727C190.768 127.533 190.797 127.34 190.811 127.146C190.948 127.152 191.084 127.167 191.221 127.192C191.837 127.304 192.427 127.469 193.06 127.442C193.583 127.42 194.093 127.271 194.572 127.066C194.89 126.929 195.215 126.796 195.565 126.783C195.583 126.783 195.6 126.783 195.617 126.784C195.623 126.784 195.628 126.784 195.633 126.785C195.646 126.786 195.657 126.787 195.669 126.789C195.674 126.789 195.679 126.79 195.684 126.791C195.692 126.791 195.699 126.794 195.707 126.795C195.715 126.796 195.722 126.798 195.73 126.799C195.736 126.801 195.742 126.803 195.749 126.804L195.759 126.807C195.764 126.809 195.77 126.81 195.775 126.812C195.78 126.814 195.786 126.815 195.791 126.817C195.822 126.833 195.854 126.847 195.887 126.858C195.894 126.861 195.901 126.866 195.909 126.869C195.916 126.874 195.924 126.878 195.932 126.883C195.94 126.887 195.947 126.892 195.955 126.897C195.963 126.902 195.97 126.907 195.978 126.912C195.985 126.917 195.993 126.923 196 126.928C196.008 126.934 196.015 126.939 196.022 126.945C196.03 126.951 196.037 126.956 196.044 126.962C196.051 126.968 196.058 126.974 196.065 126.98C196.072 126.987 196.079 126.992 196.086 126.999C196.093 127.005 196.1 127.012 196.107 127.019C196.114 127.025 196.12 127.031 196.127 127.037C196.133 127.045 196.14 127.052 196.147 127.059C196.153 127.065 196.16 127.072 196.166 127.078C196.173 127.086 196.179 127.093 196.186 127.101C196.192 127.108 196.198 127.114 196.203 127.121C196.21 127.129 196.217 127.137 196.224 127.146C196.229 127.152 196.234 127.159 196.24 127.165C196.246 127.174 196.254 127.183 196.261 127.192C196.265 127.198 196.27 127.204 196.274 127.21C196.282 127.221 196.29 127.232 196.298 127.243C196.301 127.248 196.304 127.252 196.308 127.257C196.318 127.272 196.329 127.288 196.34 127.304L196.341 127.306C196.351 127.321 196.361 127.336 196.37 127.352C196.373 127.356 196.376 127.36 196.378 127.365C196.385 127.376 196.393 127.388 196.399 127.399C196.403 127.404 196.406 127.41 196.409 127.416C196.415 127.426 196.421 127.436 196.427 127.447C196.431 127.453 196.434 127.458 196.437 127.464C196.442 127.474 196.448 127.484 196.454 127.494C196.457 127.5 196.46 127.506 196.463 127.512C196.468 127.521 196.474 127.531 196.479 127.541C196.482 127.546 196.485 127.552 196.487 127.558C196.493 127.567 196.497 127.577 196.503 127.587C196.505 127.592 196.508 127.597 196.51 127.603C196.515 127.612 196.52 127.622 196.524 127.631C196.527 127.636 196.53 127.641 196.532 127.646C196.537 127.655 196.541 127.665 196.546 127.674C196.548 127.679 196.55 127.683 196.553 127.688C196.557 127.697 196.561 127.707 196.566 127.716L196.571 127.727C196.576 127.737 196.581 127.748 196.585 127.757L196.588 127.763C196.6 127.789 196.611 127.813 196.621 127.834L196.623 127.84C196.627 127.847 196.63 127.855 196.633 127.862L196.639 127.874C196.641 127.878 196.643 127.883 196.645 127.887C196.649 127.895 196.653 127.902 196.656 127.909C196.844 128.283 196.877 128.861 196.838 129.27C196.798 129.697 196.533 130.31 196.363 130.7C196.304 130.835 196.296 130.865 196.252 131.005C196.209 131.141 196.074 131.194 195.872 131.319C195.783 131.374 195.634 131.636 195.678 131.771H196.779C196.834 131.717 196.867 131.633 196.871 131.503L196.882 131.501H197.757C197.812 131.439 197.846 131.345 197.849 131.197C198.043 131.181 198.047 130.854 198.045 130.665C198.037 130.094 198.431 129.091 198.625 128.591C198.812 128.106 199.113 127.99 199.082 127.478C199.069 127.254 198.903 127.045 198.796 126.517C198.774 126.406 198.756 126.265 198.742 126.11C198.74 126.092 198.739 126.075 198.737 126.057L198.737 126.053C198.706 125.702 198.693 125.297 198.688 125.035V125.033C198.687 124.98 198.686 124.933 198.685 124.894V124.888C198.685 124.88 198.685 124.872 198.685 124.864V124.857C198.685 124.85 198.685 124.843 198.684 124.836V124.831C198.684 124.819 198.684 124.808 198.684 124.8V124.795C198.684 124.79 198.684 124.785 198.684 124.782V124.761C198.872 123.952 198.983 123.096 198.761 122.312C199.174 122.968 198.986 124.05 198.884 124.764C198.752 125.69 199.225 126.536 199.225 126.536C199.225 126.536 199.224 126.601 199.224 126.704C199.223 126.879 199.222 127.16 199.226 127.412V127.417C199.226 127.451 199.227 127.486 199.227 127.519L199.228 127.526C199.228 127.54 199.228 127.554 199.229 127.567L199.229 127.576C199.23 127.607 199.231 127.637 199.232 127.665L199.232 127.675C199.232 127.686 199.233 127.696 199.233 127.706L199.234 127.717C199.234 127.729 199.235 127.742 199.236 127.754V127.755C199.236 127.767 199.237 127.778 199.238 127.789L199.238 127.798C199.239 127.806 199.239 127.814 199.24 127.822L199.24 127.831C199.241 127.841 199.242 127.85 199.243 127.859C199.314 128.599 199.413 129.003 199.476 129.198C199.477 129.249 199.479 129.301 199.482 129.352V129.353C199.483 129.373 199.496 129.391 199.516 129.398C199.543 129.408 199.572 129.394 199.582 129.367C199.618 129.265 199.649 129.163 199.676 129.06C199.678 129.055 199.68 129.051 199.682 129.047C199.685 129.04 199.688 129.034 199.691 129.028C199.702 129.004 199.712 128.981 199.722 128.957C199.726 128.949 199.729 128.941 199.733 128.933C199.745 128.905 199.757 128.877 199.768 128.849V128.848C199.78 128.82 199.791 128.792 199.802 128.764C199.805 128.757 199.807 128.75 199.81 128.743C199.819 128.721 199.827 128.699 199.834 128.677C199.837 128.671 199.839 128.666 199.841 128.66C199.85 128.633 199.86 128.607 199.868 128.581C199.87 128.576 199.872 128.571 199.873 128.566C199.881 128.545 199.887 128.524 199.894 128.503C199.896 128.496 199.898 128.489 199.9 128.482C199.908 128.458 199.914 128.434 199.921 128.41L199.922 128.408C199.929 128.383 199.935 128.358 199.941 128.334C199.943 128.328 199.945 128.321 199.946 128.315C199.951 128.296 199.955 128.277 199.96 128.258C199.961 128.253 199.963 128.248 199.964 128.243C199.969 128.219 199.974 128.196 199.978 128.174C199.979 128.169 199.98 128.165 199.981 128.161C199.984 128.142 199.987 128.123 199.991 128.105C199.992 128.099 199.993 128.093 199.994 128.087C199.997 128.066 200 128.046 200.003 128.025L200.004 128.021C200.006 127.999 200.009 127.979 200.011 127.957C200.012 127.952 200.012 127.946 200.013 127.941C200.015 127.924 200.016 127.907 200.017 127.891C200.018 127.886 200.018 127.881 200.018 127.877C200.02 127.856 200.021 127.836 200.022 127.816L200.022 127.806C200.023 127.789 200.023 127.773 200.024 127.756C200.024 127.751 200.024 127.745 200.024 127.74C200.024 127.722 200.024 127.705 200.023 127.687Z" fill="#084014"/>
<path d="M108.531 123.967C111.489 124.121 114.322 122.482 114.322 122.482C114.322 122.482 114.373 129.698 114.322 131.59L103.289 132.226L103.607 120.336C103.607 120.336 105.224 123.795 108.531 123.967Z" fill="#084014" stroke="#084014" stroke-linecap="round"/>
<path d="M125.699 111.629L133.208 117.121L133.2 132.338L114.842 130.856L114.848 118.168L125.699 111.629ZM125.699 111.629L112.605 111.48L103.516 117.469L115.358 118.166L103.963 117.69L103.522 131.405" stroke="#084014" stroke-linecap="round"/>
<path d="M111.367 115.674C113.532 115.715 121.061 114.834 121.061 114.834L115.169 117.554L103.516 117.282L108.884 114.045C108.884 114.045 107.103 115.595 111.367 115.674Z" fill="#084014" stroke="#084014" stroke-width="0.5" stroke-linecap="round"/>
<path d="M127.443 122.503C127.443 122.503 128.306 120.065 127.424 118.679C127.012 118.031 123.051 118.701 123.051 118.701L123.07 122.525L127.443 122.503Z" stroke="#084014" stroke-linecap="round"/>
<path d="M133.865 117.398L132.672 116.57" stroke="#084014" stroke-linecap="round"/>
<path d="M127.093 122.388C127.093 122.388 128.08 119.254 126.853 118.797C125.627 118.339 123.355 118.93 123.355 118.93" stroke="#084014" stroke-linecap="round"/>
<path d="M163.348 133.378V123.855C163.348 123.855 163.348 122.746 163.348 123.633" stroke="#084014" stroke-width="2"/>
<path d="M162.309 134.075V125.208C162.309 125.208 162.309 124.176 162.309 125.001" stroke="#084014" stroke-width="2"/>
<path d="M161.613 133.375V125.822C161.613 125.822 161.613 124.943 161.613 125.645" stroke="#084014" stroke-width="2"/>
<path d="M163.216 123.713C163.216 123.713 160.863 127.594 157.264 126.173C153.47 124.676 158.438 119.736 158.438 119.736" stroke="#084014" stroke-width="2"/>
<path d="M163.22 123.404C163.22 123.404 161.114 126.822 157.892 125.571C154.495 124.252 158.943 119.9 158.943 119.9" stroke="#084014" stroke-width="2"/>
<path d="M158.108 120.065C158.108 120.065 153.654 118.401 154.654 114.936C155.823 110.892 160.441 112.475 160.441 112.475" stroke="#084014" stroke-width="2"/>
<path d="M157.942 120.062C157.942 120.062 154.144 118.279 155.145 114.813C156.313 110.769 160.932 112.352 160.932 112.352" stroke="#084014" stroke-width="2"/>
<path d="M160.609 111.824C160.609 111.824 160.604 107.725 165.16 108.439C169.362 109.098 168.846 112.332 168.846 112.332" stroke="#084014" stroke-width="2"/>
<path d="M163.702 114.41C163.9 114.872 164.044 115.056 164.65 115.525C165.081 115.858 165.615 114.41 165.615 114.41C165.615 114.41 163.18 113.193 163.702 114.41Z" fill="#084014"/>
<path d="M161.16 113.732C161.18 114.477 159.715 112.485 159.715 112.485L161.481 111.107C161.481 111.107 161.102 111.484 161.16 113.732Z" fill="#084014"/>
<path d="M157.582 119.156C157.582 119.156 158.715 119.727 160.189 119.286C160.745 119.12 159.359 120.518 159.359 120.518L157.582 119.156Z" fill="#084014"/>
<path d="M164.226 119.109L162.133 123.808C162.133 123.808 163.56 120.737 162.292 119.414C161.674 118.769 164.226 119.109 164.226 119.109Z" fill="#084014"/>
<path d="M164.217 119.113L163.696 120.853L163.348 119.983" stroke="#084014" stroke-width="2"/>
<path d="M163.521 120.676L163.348 121.894" stroke="#084014" stroke-width="2"/>
<path d="M160.422 112.886C160.422 112.886 160.417 108.703 164.891 109.431C169.017 110.102 169.401 111.503 168.511 113.404C167.884 114.744 166.334 115.353 164.914 114.937" stroke="#084014" stroke-width="2"/>
<path d="M164.05 119.746C164.456 119.912 164.202 124.37 162.293 125.521" stroke="#084014" stroke-width="2"/>
<path d="M163.884 121.234C163.884 121.234 162.55 125.69 160.402 126.179" stroke="#084014" stroke-width="2"/>
<path d="M157.48 114.731C157.48 115.372 157.663 118.34 159.093 116.989C159.808 116.314 159.185 113.982 159.111 114.426C159.069 114.683 158.585 117.9 158.843 117.814C159.554 117.576 159.739 114.93 159.739 114.265C159.739 113.972 159.283 112.867 159.111 113.637C158.384 116.911 159.032 112.498 157.803 113.189C157.309 113.467 157.48 114.416 157.48 114.892C157.48 115.919 157.593 115.204 156.996 115.071C156.13 114.879 155.813 117.437 156.262 117.885C156.915 118.539 158.83 117.037 157.964 116.344C157.295 115.809 158.249 114.491 156.835 114.408C155.815 114.348 155.965 116.595 156.656 116.989C157.617 117.538 158.299 117.661 158.448 118.925C158.548 119.773 161.03 119.218 161.03 118.118C161.03 117.498 161.228 114.803 160.635 116.451C160.325 117.313 160.061 118.837 160.061 117.151C160.061 115.725 160.04 115.356 160.958 114.336C161.193 114.074 161.03 112.959 161.03 114.265C161.03 115.221 160.891 115.897 160.725 116.81C160.545 117.798 161.092 119.275 159.577 118.602C158.047 117.922 157.601 118.469 159.416 117.635C160.376 117.193 161.753 117.12 161.979 115.878C162.028 115.61 162.142 114.518 161.818 114.426C161.205 114.251 161.074 114.521 161.03 113.763C161.012 113.465 161.31 114.742 162.894 114.265C163.564 114.062 166.877 110.962 165.511 110.572C164.437 110.266 162.964 110.536 161.854 110.536C160.195 110.536 159.079 113.245 161.03 113.691C162.252 113.97 163.711 113.552 163.27 112.006C163.052 111.245 160.11 112.715 162.965 112.795C163.554 112.811 165.171 112.691 164.883 111.683C164.762 111.259 162.882 111.504 162.553 111.504C161.239 111.504 165.331 111.559 166.443 110.859C167.343 110.292 166.912 111.057 166.514 111.504C166.189 111.87 166.07 112.45 166.21 112.938C166.349 113.427 166.563 111.795 166.694 111.701C167.834 110.886 167.482 113.795 167.482 113.117C167.482 112.316 168.085 109.99 167.787 110.733C167.581 111.247 167.054 114.382 166.264 113.117C165.325 111.616 164.932 114.352 164.65 114.39C162.375 114.694 161.675 113.962 161.675 116.416C161.675 117.726 160.841 118.753 160.707 119.893C160.548 121.244 159.625 121.077 158.914 121.99C158.277 122.809 157.871 123.759 158.771 124.159C160.019 124.714 161.03 124.699 161.03 123.281C161.03 121.718 158.347 123.445 159.559 124.016C160.693 124.549 161.622 121.787 160.868 121.184C159.634 120.196 159.953 122.449 160.384 122.474C160.646 122.49 161.565 122.614 161.657 122.295C161.77 121.898 161.81 120.675 161.657 121.058C161.451 121.572 161.352 123.871 161.352 122.797C161.352 121.775 161.352 120.753 161.352 119.732C161.352 118.276 161.352 121.566 161.352 122.151C161.352 123.961 161.997 123.127 161.997 121.685C161.997 119.833 162.32 119.872 162.32 121.829C162.32 123.338 162.965 119.974 162.965 119.248C162.965 118.355 163.288 117.372 163.288 116.344C163.288 115.86 163.288 115.376 163.288 114.892C163.288 113.184 163.288 116.177 163.288 116.595C163.288 116.82 163.125 120.354 162.642 118.907C162.279 117.818 162.115 116.637 162.571 115.555C162.981 114.58 162.471 115.109 162.338 115.842C162.153 116.857 162.32 118.049 162.32 119.068C162.32 119.205 162.354 121.679 162.571 121.435C163.072 120.871 162.965 118.916 162.965 118.208C162.965 116.454 163.035 116.305 164.417 115.537C165.075 115.172 167.044 114.744 166.371 114.408C165.508 113.977 163.933 114.262 163.933 115.214C163.933 116.238 164.256 117.2 164.256 118.28C164.256 119.408 164.901 116.774 164.901 116.182C164.901 114.442 163.547 116.551 163.037 117.061C162.652 117.445 160.877 119.722 161.836 118.763C162.51 118.09 162.164 117.236 162.714 116.487C162.905 116.227 163.513 116.122 163.593 115.842C163.634 115.698 163.605 115.197 163.861 115.197C163.99 115.197 163.665 122.214 164.507 120.216C165.247 118.457 165.224 115.684 165.224 113.763" stroke="#084014" stroke-width="2" stroke-linecap="round"/>
<path d="M157.703 119.572C157.775 120.148 158.916 119.895 159.316 119.895" stroke="#084014" stroke-width="2" stroke-linecap="round"/>
<path d="M159.965 121.508V123.444" stroke="#084014" stroke-width="2" stroke-linecap="round"/>
<path d="M161.577 123.438C161.523 123.873 159.638 123.869 159.157 124.083C158.573 124.342 157.383 126.021 157.383 124.083" stroke="#084014" stroke-width="2" stroke-linecap="round"/>
<path d="M161.975 111.353C161.153 111.353 160.729 112.4 160.237 112.913C159.855 113.312 160.378 113.119 160.661 113.059C161.392 112.904 162.011 112.613 162.632 112.2C162.811 112.08 162.706 111.962 162.575 112.086C161.913 112.709 161.875 113.656 161.747 114.486C161.712 114.712 160.63 114.304 160.307 114.309C159.649 114.321 158.784 114.654 158.343 115.169C157.936 115.643 158.222 116.344 157.426 116.217C157.316 116.199 156.9 116.014 156.801 116.091C156.626 116.227 156.441 116.705 156.409 116.925C156.381 117.124 156.403 117.342 156.403 117.544C156.403 117.778 156.582 117.635 156.624 117.784C156.814 118.449 157.258 118.764 157.591 119.382C157.761 119.698 157.748 120.007 157.995 120.31C158.188 120.547 158.462 120.689 158.677 120.904C158.872 121.099 159.639 121.57 159.694 121.763C159.722 121.861 159.721 122.064 159.675 122.155C159.599 122.308 157.503 123.975 157.426 123.822C157.117 123.203 159.7 120.792 159.7 120.115C159.7 119.585 159.192 120.371 159.094 120.512C158.831 120.893 158.576 121.452 158.564 121.928C158.537 122.905 159.375 123.121 160.218 122.723C160.449 122.614 160.951 122.034 160.951 121.769C160.951 121.153 158.892 125.333 159.094 125.916C159.269 126.421 162.262 122.486 162.309 122.155C162.416 121.408 162.315 123.022 162.315 123.292C162.315 123.38 162.39 123.788 162.423 123.494C162.498 122.817 162.448 122.063 162.246 121.416C161.916 120.355 161.387 119.148 160.724 118.264C159.876 117.133 159.354 115.692 158.5 114.594C157.921 113.849 157.493 113.855 156.567 113.855C156.414 113.855 156.014 113.855 156.441 113.855C157.066 113.855 157.654 113.785 158.273 113.716C160.165 113.503 162.526 113.737 164.28 112.945C164.757 112.73 165.214 112.444 165.726 112.313C166.01 112.242 166.371 112.349 166.636 112.238C166.83 112.156 168.157 111.267 168.2 111.354C168.523 112.001 167.422 113.514 166.636 113.514" stroke="#084014" stroke-width="2" stroke-linecap="round"/>
<path d="M165.271 115.219C165.878 115.489 166.403 115.635 167.002 115.989C167.69 116.396 168.323 117.049 168.909 117.606C169.521 118.188 169.52 119.538 169.477 120.335C169.409 121.635 166.744 122.275 165.814 122.47C164.792 122.684 163.815 122.723 162.77 122.723" stroke="#084014" stroke-width="2" stroke-linecap="round"/>
<path d="M165.951 118.062C165.663 118.84 165.668 119.422 165.585 120.248C165.542 120.672 165.496 121.895 165.496 120.703C165.496 119.577 165.859 118.223 165.521 117.127C165.393 116.708 165.432 115.9 166.014 116.427C166.67 117.02 167.441 117.393 168.055 118.006C168.26 118.211 168.405 118.225 168.509 118.517C168.603 118.781 168.581 119.05 168.705 119.313C168.914 119.754 169.071 120.13 168.503 120.337C167.85 120.574 167.2 121.781 166.498 121.859C166.03 121.911 165.565 121.294 165.155 121.499C164.82 121.666 163.849 122.056 164.309 121.202C164.437 120.963 164.625 120.746 164.757 120.507C164.91 120.232 165.374 120.118 165.61 119.882C165.94 119.551 165.635 118.775 165.73 118.347C165.758 118.219 166.82 117.506 166.917 117.671C167.137 118.047 166.406 119.003 166.406 119.414C166.406 119.562 166.312 120.592 166.431 120.652C166.759 120.816 167.202 118.881 167.202 118.631C167.202 118.258 167.111 118.57 167.366 118.915C167.566 119.186 167.596 119.487 167.745 119.768C167.836 119.94 167.848 120.112 167.941 120.28C168.051 120.479 167.998 119.52 167.998 119.313" stroke="#084014" stroke-width="2" stroke-linecap="round"/>
<path d="M137.43 83.9791L138.112 82.7891L138.794 83.9791H137.43Z" fill="#084014" stroke="#084014" stroke-width="2"/>
<path d="M141.508 84.7687L142.501 84.2578L142.443 85.3796L141.508 84.7687Z" fill="#084014" stroke="#084014" stroke-width="2"/>
<path d="M144.129 87.8863L145.244 87.8398L144.726 88.8351L144.129 87.8863Z" fill="#084014" stroke="#084014" stroke-width="2"/>
<path d="M145.488 91.2461L146.454 91.8076L145.488 92.3691V91.2461Z" fill="#084014" stroke="#084014" stroke-width="2"/>
<path d="M144.333 95.3438L144.908 96.3064L143.793 96.3265L144.333 95.3438Z" fill="#084014" stroke="#084014" stroke-width="2"/>
<path d="M142.062 98.0781L142.133 99.199L141.133 98.6978L142.062 98.0781Z" fill="#084014" stroke="#084014" stroke-width="2"/>
<path d="M138.432 99.4609L137.864 100.428L137.316 99.4492L138.432 99.4609Z" fill="#084014" stroke="#084014" stroke-width="2"/>
<path d="M134.45 98.666L133.469 99.2007L133.5 98.0781L134.45 98.666Z" fill="#084014" stroke="#084014" stroke-width="2"/>
<path d="M131.381 96.0279L130.266 95.9865L130.859 95.0352L131.381 96.0279Z" fill="#084014" stroke="#084014" stroke-width="2"/>
<path d="M130.223 92.3617L129.254 91.8052L130.217 91.2383L130.223 92.3617Z" fill="#084014" stroke="#084014" stroke-width="2"/>
<path d="M130.763 88.6315L130.191 87.6667L131.307 87.6504L130.763 88.6315Z" fill="#084014" stroke="#084014" stroke-width="2"/>
<path d="M133.434 85.2894L133.445 84.166L134.405 84.738L133.434 85.2894Z" fill="#084014" stroke="#084014" stroke-width="2"/>
<path d="M144.475 91.7075C144.475 95.386 141.514 98.3677 137.861 98.3677C134.208 98.3677 131.246 95.386 131.246 91.7075C131.246 88.029 134.208 85.0469 137.861 85.0469C141.514 85.0469 144.475 88.029 144.475 91.7075Z" fill="#084014"/>
<path d="M99.775 97.8857C79.907 127.581 87.8741 167.76 117.569 187.628C147.265 207.496 187.444 199.529 207.311 169.834C227.179 140.138 219.212 99.9592 189.517 80.0912C159.822 60.2237 119.643 68.1903 99.775 97.8857Z" stroke="#084014" stroke-width="2"/>
<path d="M328.07 191.651C340.674 191.651 350.891 181.434 350.891 168.83C350.891 156.227 340.674 146.01 328.07 146.01C315.467 146.01 305.25 156.227 305.25 168.83C305.25 181.434 315.467 191.651 328.07 191.651Z" stroke="#084014" stroke-width="2"/>
<path d="M86.1289 76.293C92.7197 76.293 98.0625 70.9501 98.0625 64.3594C98.0625 57.7686 92.7197 52.4258 86.1289 52.4258C79.5382 52.4258 74.1953 57.7686 74.1953 64.3594C74.1953 70.9501 79.5382 76.293 86.1289 76.293Z" stroke="#084014" stroke-width="2"/>
<path d="M106.647 89.0619L93.457 74.1973" stroke="#084014" stroke-width="2"/>
<path d="M212.289 152.082L303.361 163.806" stroke="#084014" stroke-width="2"/>
<path d="M226.193 245.246C235.79 245.246 243.57 237.466 243.57 227.869C243.57 218.272 235.79 210.492 226.193 210.492C216.596 210.492 208.816 218.272 208.816 227.869C208.816 237.466 216.596 245.246 226.193 245.246Z" stroke="#084014" stroke-width="2"/>
<path d="M193.867 180.469L216.897 213.967" stroke="#084014" stroke-width="2"/>
<path d="M152.488 204.21C147.245 214.516 131.734 197.596 121.429 192.353C111.123 187.11 89.5983 183.186 94.8416 172.881C98.8178 162.833 125.196 163.634 133.856 168.039C149.482 175.988 156.882 200.026 152.488 204.21Z" fill="#768A4F"/>
<path d="M188.887 189.267C195.284 179.635 134.794 193.276 125.223 186.919C115.651 180.562 91.0713 126.761 84.674 136.393C77.8844 144.799 102.116 204.351 110.158 209.693C124.671 219.333 187.392 195.143 188.887 189.267Z" fill="#768A4F"/>
<path d="M124.152 191.304C128.199 191.304 131.48 188.023 131.48 183.976C131.48 179.929 128.199 176.648 124.152 176.648C120.105 176.648 116.824 179.929 116.824 183.976C116.824 188.023 120.105 191.304 124.152 191.304Z" fill="#084014"/>
<path d="M88.1059 146.138L82.9062 136.926L94.6499 137.763L95.4679 143.944L88.1059 146.138Z" fill="#768A4F"/>
<path d="M85.762 145.724L84.2969 139.025L92.4616 136.932L93.299 143.421L85.762 145.724Z" stroke="#768A4F" stroke-width="2"/>
<path d="M85.762 145.724L84.2969 139.025L92.4616 136.932L93.299 143.421L85.762 145.724Z" stroke="#768A4F" stroke-width="2"/>
<path d="M85.762 145.724L84.2969 139.025L92.4616 136.932L93.299 143.421L85.762 145.724Z" stroke="#768A4F" stroke-width="2"/>
<path d="M91.874 157.021L77.6719 145.088L98.4181 148.647L99.2361 154.828L91.874 157.021Z" fill="#768A4F"/>
<path d="M88.2737 156.611L86.8086 149.912L94.9733 147.818L95.8107 154.308L88.2737 156.611Z" stroke="#768A4F" stroke-width="2"/>
<path d="M88.2737 156.611L86.8086 149.912L94.9733 147.818L95.8107 154.308L88.2737 156.611Z" stroke="#768A4F" stroke-width="2"/>
<path d="M88.2737 156.611L86.8086 149.912L94.9733 147.818L95.8107 154.308L88.2737 156.611Z" stroke="#768A4F" stroke-width="2"/>
<path d="M97.3834 168.744L83.3281 156.81L102.528 154.926L104.683 166.51L97.3834 168.744Z" fill="#768A4F"/>
<path d="M94.1309 168.754L90.8594 157.439L99.4432 154.508L101.668 166.451L94.1309 168.754Z" stroke="#768A4F" stroke-width="2"/>
<path d="M94.1309 168.754L90.8594 157.439L99.4432 154.508L101.668 166.451L94.1309 168.754Z" stroke="#768A4F" stroke-width="2"/>
<path d="M94.1309 168.754L90.8594 157.439L99.4432 154.508L101.668 166.451L94.1309 168.754Z" stroke="#768A4F" stroke-width="2"/>
<path d="M84.582 134.411L86.3214 133.992L87.0944 139.226L85.7415 139.436L84.582 134.411Z" fill="#768A4F"/>
<path d="M84.6562 144.878L87.7124 143.027L90.4629 152.196H87.0955L84.6562 144.878Z" fill="#768A4F"/>
<path d="M85.8398 145.297L87.096 144.879L88.3522 150.113L86.9993 150.322L85.8398 145.297Z" stroke="#768A4F" stroke-width="2"/>
<path d="M85.8398 145.297L87.096 144.879L88.3522 150.113L86.9993 150.322L85.8398 145.297Z" stroke="#768A4F" stroke-width="2"/>
<path d="M85.8398 145.297L87.096 144.879L88.3522 150.113L86.9993 150.322L85.8398 145.297Z" stroke="#768A4F" stroke-width="2"/>
<path d="M88.7695 156.184L90.0257 155.766L91.91 161L89.929 161.209L88.7695 156.184Z" fill="#768A4F"/>
<path d="M88.7695 156.184L90.0257 155.766L91.91 161L89.929 161.209L88.7695 156.184Z" stroke="#768A4F" stroke-width="2"/>
<path d="M88.7695 156.184L90.0257 155.766L91.91 161L89.929 161.209L88.7695 156.184Z" stroke="#768A4F" stroke-width="2"/>
<path d="M86.4883 154.64L89.2388 152.195L91.9089 161.61L89.9279 161.819L86.4883 154.64Z" fill="#768A4F" stroke="#768A4F" stroke-width="2"/>
<path d="M93.375 165.813L94.6312 165.395L96.9341 170.838H94.5344L93.375 165.813Z" fill="#768A4F"/>
<path d="M93.375 165.813L94.6312 165.395L97.7963 173.588L94.5344 170.838L93.375 165.813Z" stroke="#768A4F" stroke-width="2"/>
<path d="M92.1211 166.231L93.3773 165.812L96.5424 172.478L94.0974 173.394L92.1211 166.231Z" fill="#768A4F" stroke="#768A4F" stroke-width="2"/>
<path d="M177.12 196.801L165.605 200.36H170.002C170.17 200.36 174.817 197.987 177.12 196.801Z" fill="#768A4F"/>
<path d="M177.12 196.801L165.605 200.36H170.002C170.17 200.36 174.817 197.987 177.12 196.801Z" stroke="#768A4F" stroke-width="2"/>
<path d="M177.119 196.801L161.363 201.401L170 200.36C170.168 200.36 174.816 197.987 177.119 196.801Z" stroke="#768A4F" stroke-width="2"/>
<path d="M176.909 196.172L163.301 200.15L170.807 199.312C170.966 199.312 174.732 197.288 176.909 196.172Z" stroke="#768A4F" stroke-width="2"/>
<path d="M155.936 199.998C158.601 200.219 164.285 199.171 166.664 198.849C162.385 170.123 145.594 167.512 152.502 175.12L155.558 188.872C154.787 192.336 155.44 196.935 155.936 199.998Z" fill="#768A4F"/>
<path d="M163.505 199.258L151.16 201.268L151.586 203.842C151.743 203.863 163.933 202.455 163.505 199.258Z" fill="#768A4F"/>
<path d="M170.842 197.733C173.43 197.956 174.949 199.28 177.26 198.956C172.37 180.924 165.341 168.394 169.314 180.008L168.703 187.342C169.699 191.253 170.361 194.644 170.842 197.733Z" fill="#768A4F"/>
<path d="M188.877 196.976L187.734 195.217L195.375 191.244L196.292 195.217L193.274 197.186L188.877 196.976Z" fill="#768A4F"/>
<path d="M177.117 197.429V197.01L181.514 194.498L181.932 196.592L177.117 197.429Z" fill="#768A4F"/>
<path d="M177.117 197.429V197.01L181.514 194.498L181.932 196.592L177.117 197.429Z" stroke="#768A4F" stroke-width="2"/>
<path d="M177.117 197.429V197.01L181.514 194.498L181.932 196.592L177.117 197.429Z" stroke="#768A4F" stroke-width="2"/>
<path d="M177.561 198.955L175.422 196.204L191.314 191.314L189.48 197.427L177.561 198.955Z" fill="#768A4F"/>
<path d="M185.203 186.426L181.54 188.871L182.593 193.762L186.827 192.238L185.203 186.426Z" fill="#768A4F" stroke="#768A4F" stroke-width="2"/>
<path d="M166.912 198.442C161.388 164.94 132.769 144.822 91.9609 158.035" stroke="#F87802" stroke-width="2" stroke-linecap="square"/>
<path d="M178.427 195.511C171.701 157.297 133.424 132.775 88.8203 147.986" stroke="#F87802" stroke-width="2" stroke-linecap="square"/>
<path d="M154.142 200.119C148.377 168.366 125.459 158.247 97.1953 168.715" stroke="#F87802" stroke-width="2" stroke-linecap="square"/>
<path d="M189.023 189.486C176.252 140.914 134.252 125.53 87.3555 136.889" stroke="#F87802" stroke-width="2" stroke-linecap="square"/>
</g>
<path d="M243 134.753V130.237L247.006 129.463V102.491L243 101.717V97.1745H260.833C263.728 97.1745 266.209 97.6218 268.276 98.5164C270.344 99.411 271.929 100.693 273.032 102.362C274.152 104.031 274.712 106.036 274.712 108.376C274.712 110.578 274.16 112.548 273.058 114.286C271.955 116.024 270.421 117.392 268.457 118.39C266.493 119.388 264.227 119.896 261.66 119.912H254.553V129.463L258.585 130.237V134.753H243ZM267.217 134.753L260.885 118.519L267.682 116.841L273.161 129.488L276.365 130.237V134.753H267.217ZM254.553 114.106H260.704C262.875 114.106 264.494 113.649 265.562 112.738C266.648 111.808 267.191 110.466 267.191 108.711C267.191 106.973 266.657 105.588 265.588 104.556C264.52 103.506 262.935 102.981 260.833 102.981H254.553V114.106ZM292.958 135.295C290.287 135.295 287.953 134.71 285.954 133.54C283.955 132.353 282.405 130.727 281.302 128.662C280.216 126.598 279.674 124.24 279.674 121.59V120.558C279.674 117.787 280.191 115.336 281.224 113.202C282.258 111.051 283.714 109.365 285.592 108.143C287.487 106.904 289.719 106.294 292.286 106.311C294.819 106.311 296.947 106.81 298.669 107.808C300.392 108.806 301.702 110.243 302.598 112.118C303.494 113.994 303.942 116.265 303.942 118.932V123.036H287.505L287.453 123.191C287.556 124.412 287.858 125.505 288.357 126.468C288.874 127.415 289.598 128.163 290.528 128.714C291.459 129.247 292.587 129.514 293.914 129.514C295.293 129.514 296.576 129.342 297.765 128.998C298.971 128.636 300.143 128.112 301.28 127.423L303.321 132.069C302.167 132.998 300.711 133.773 298.954 134.392C297.214 134.994 295.215 135.295 292.958 135.295ZM287.556 118.054H296.886V117.383C296.886 116.248 296.731 115.276 296.421 114.467C296.128 113.641 295.646 113.004 294.974 112.557C294.319 112.109 293.466 111.886 292.415 111.886C291.416 111.886 290.572 112.153 289.883 112.686C289.193 113.202 288.651 113.916 288.254 114.828C287.875 115.74 287.617 116.773 287.479 117.925L287.556 118.054ZM318.182 135.295C315.96 135.295 314.047 134.728 312.445 133.592C310.86 132.439 309.645 130.839 308.801 128.791C307.957 126.726 307.534 124.318 307.534 121.564V121.023C307.534 118.08 307.957 115.508 308.801 113.305C309.662 111.103 310.886 109.391 312.471 108.169C314.056 106.93 315.951 106.311 318.156 106.311C319.69 106.311 321.034 106.621 322.188 107.24C323.343 107.842 324.342 108.703 325.186 109.821V99.8067L321.154 99.0325V94.4902H325.186H332.733V129.463L336.351 130.237V134.753H326.194L325.625 131.346C324.747 132.637 323.696 133.618 322.473 134.289C321.266 134.96 319.836 135.295 318.182 135.295ZM320.431 129.436C321.482 129.436 322.404 129.213 323.196 128.766C323.989 128.318 324.652 127.673 325.186 126.83V114.983C324.669 114.088 324.014 113.4 323.222 112.918C322.43 112.419 321.516 112.17 320.482 112.17C319.225 112.17 318.191 112.548 317.381 113.305C316.589 114.045 316.003 115.078 315.624 116.403C315.262 117.728 315.081 119.268 315.081 121.023V121.564C315.081 124.008 315.494 125.935 316.321 127.346C317.149 128.74 318.518 129.436 320.431 129.436ZM352.09 135.295C349.42 135.295 347.085 134.71 345.087 133.54C343.088 132.353 341.537 130.727 340.435 128.662C339.349 126.598 338.806 124.24 338.806 121.59V120.558C338.806 117.787 339.323 115.336 340.357 113.202C341.391 111.051 342.847 109.365 344.725 108.143C346.62 106.904 348.851 106.294 351.419 106.311C353.951 106.311 356.079 106.81 357.802 107.808C359.525 108.806 360.834 110.243 361.731 112.118C362.627 113.994 363.074 116.265 363.074 118.932V123.036H346.637L346.586 123.191C346.689 124.412 346.99 125.505 347.49 126.468C348.007 127.415 348.731 128.163 349.661 128.714C350.591 129.247 351.72 129.514 353.047 129.514C354.425 129.514 355.709 129.342 356.898 128.998C358.104 128.636 359.275 128.112 360.412 127.423L362.454 132.069C361.3 132.998 359.844 133.773 358.087 134.392C356.346 134.994 354.348 135.295 352.09 135.295ZM346.689 118.054H356.019V117.383C356.019 116.248 355.864 115.276 355.554 114.467C355.261 113.641 354.778 113.004 354.107 112.557C353.452 112.109 352.599 111.886 351.548 111.886C350.548 111.886 349.704 112.153 349.015 112.686C348.326 113.202 347.783 113.916 347.387 114.828C347.008 115.74 346.749 116.773 346.611 117.925L346.689 118.054ZM397.267 135.295C393.615 135.295 390.436 134.538 387.73 133.024C385.025 131.493 382.932 129.333 381.45 126.546C379.986 123.741 379.253 120.429 379.253 116.609V115.344C379.253 111.697 379.96 108.47 381.373 105.666C382.803 102.844 384.836 100.633 387.472 99.0325C390.108 97.4325 393.244 96.6321 396.879 96.6321C399.429 96.6321 401.816 96.9937 404.038 97.7164C406.278 98.4391 408.277 99.5402 410.034 101.02V110.105H404.426L403.651 104.401C403.082 103.988 402.462 103.635 401.79 103.343C401.118 103.05 400.386 102.827 399.593 102.672C398.818 102.517 397.973 102.439 397.06 102.439C394.924 102.439 393.089 102.964 391.555 104.014C390.022 105.063 388.842 106.552 388.015 108.479C387.205 110.389 386.8 112.66 386.8 115.293V116.609C386.8 119.242 387.23 121.521 388.092 123.449C388.954 125.376 390.177 126.873 391.762 127.939C393.347 128.989 395.225 129.514 397.396 129.514C398.482 129.514 399.567 129.394 400.653 129.153C401.756 128.894 402.755 128.568 403.651 128.172L404.426 122.881H410.034V131.863C408.57 132.826 406.743 133.644 404.555 134.314C402.367 134.968 399.938 135.295 397.267 135.295ZM423.06 135.295C420.286 135.295 418.081 134.556 416.444 133.076C414.807 131.579 413.989 129.548 413.989 126.984C413.989 125.229 414.462 123.689 415.41 122.364C416.375 121.04 417.788 119.999 419.648 119.242C421.526 118.484 423.835 118.106 426.575 118.106H430.271V116.041C430.271 114.699 429.874 113.615 429.082 112.789C428.306 111.946 427.135 111.524 425.567 111.524C424.757 111.524 424.034 111.628 423.396 111.834C422.758 112.024 422.173 112.299 421.638 112.66L421.044 116.351H415.617L415.513 109.098C416.978 108.273 418.563 107.601 420.269 107.085C421.975 106.569 423.878 106.311 425.981 106.311C429.633 106.311 432.519 107.163 434.638 108.866C436.758 110.553 437.817 112.97 437.817 116.119V127.63C437.817 128.008 437.817 128.387 437.817 128.766C437.835 129.127 437.869 129.479 437.921 129.824L440.841 130.237V134.753H431.485C431.296 134.271 431.106 133.755 430.917 133.205C430.727 132.654 430.589 132.104 430.503 131.553C429.607 132.689 428.548 133.601 427.324 134.289C426.118 134.96 424.697 135.295 423.06 135.295ZM425.076 129.721C426.127 129.721 427.126 129.488 428.074 129.024C429.022 128.542 429.754 127.914 430.271 127.139V122.726H426.549C424.895 122.726 423.637 123.104 422.776 123.862C421.932 124.619 421.509 125.531 421.509 126.598C421.509 127.596 421.82 128.37 422.44 128.92C423.077 129.454 423.956 129.721 425.076 129.721ZM443.245 134.753V130.237L446.887 129.463V112.144L442.857 111.37V106.827H453.893L454.204 110.518C455.098 109.176 456.219 108.143 457.562 107.421C458.923 106.681 460.494 106.311 462.268 106.311C464.056 106.311 465.591 106.707 466.867 107.498C468.157 108.29 469.122 109.486 469.763 111.086C470.621 109.589 471.742 108.419 473.121 107.576C474.5 106.733 476.119 106.311 477.978 106.311C480.736 106.311 482.906 107.249 484.494 109.124C486.096 111 486.896 113.856 486.896 117.693V129.463L490.539 130.237V134.753H476.092V130.237L479.348 129.463V117.667C479.348 115.603 479.006 114.174 478.316 113.383C477.645 112.574 476.662 112.17 475.372 112.17C474.197 112.17 473.206 112.505 472.396 113.176C471.587 113.83 471.004 114.699 470.639 115.783V129.463L473.69 130.237V134.753H460.071V130.237L463.118 129.463V117.667C463.118 115.654 462.775 114.234 462.086 113.409C461.414 112.583 460.413 112.17 459.088 112.17C458.02 112.17 457.095 112.385 456.321 112.815C455.547 113.245 454.911 113.864 454.409 114.673V129.463L457.665 130.237V134.753H443.245ZM492.919 145.49V140.948L496.561 140.173V112.144L492.532 111.37V106.827H503.487L503.852 110.079C504.679 108.875 505.675 107.946 506.849 107.292C508.019 106.638 509.416 106.311 511.035 106.311C513.294 106.311 515.22 106.93 516.826 108.169C518.427 109.391 519.65 111.103 520.496 113.305C521.354 115.508 521.785 118.08 521.785 121.023V121.564C521.785 124.318 521.354 126.726 520.496 128.791C519.65 130.839 518.418 132.439 516.799 133.592C515.198 134.728 513.259 135.295 510.982 135.295C509.483 135.295 508.157 135.029 507.005 134.495C505.866 133.944 504.892 133.144 504.083 132.095V140.173L507.726 140.948V145.49H492.919ZM508.735 129.514C510.666 129.514 512.062 128.8 512.921 127.372C513.802 125.944 514.242 124.008 514.242 121.564V121.023C514.242 119.25 514.042 117.71 513.646 116.403C513.25 115.078 512.636 114.045 511.809 113.305C510.999 112.548 509.959 112.17 508.682 112.17C507.65 112.17 506.738 112.402 505.942 112.867C505.168 113.331 504.55 113.994 504.083 114.854V127.088C504.55 127.879 505.168 128.481 505.942 128.894C506.738 129.308 507.668 129.514 508.735 129.514ZM538.843 135.295C536.085 135.295 533.719 134.693 531.735 133.489C529.756 132.284 528.239 130.615 527.19 128.481C526.135 126.331 525.611 123.862 525.611 121.074V120.532C525.611 117.762 526.135 115.31 527.19 113.176C528.239 111.026 529.747 109.348 531.713 108.143C533.692 106.922 536.054 106.311 538.794 106.311C541.565 106.311 543.936 106.922 545.902 108.143C547.863 109.348 549.371 111.017 550.421 113.151C551.475 115.284 552 117.745 552 120.532V121.074C552 123.862 551.475 126.331 550.421 128.481C549.371 130.615 547.863 132.284 545.902 133.489C543.936 134.693 541.583 135.295 538.843 135.295ZM538.843 129.514C540.155 129.514 541.223 129.161 542.05 128.456C542.877 127.75 543.487 126.769 543.883 125.513C544.278 124.24 544.479 122.76 544.479 121.074V120.532C544.479 118.88 544.278 117.426 543.883 116.17C543.487 114.897 542.868 113.908 542.023 113.202C541.196 112.479 540.12 112.118 538.794 112.118C537.5 112.118 536.432 112.479 535.587 113.202C534.742 113.908 534.124 114.897 533.728 116.17C533.35 117.426 533.159 118.88 533.159 120.532V121.074C533.159 122.76 533.35 124.24 533.728 125.513C534.124 126.787 534.742 127.776 535.587 128.481C536.432 129.17 537.518 129.514 538.843 129.514Z" fill="#F87802"/>
<defs>
<filter id="filter0_d_381_1751" x="69.1953" y="51.4258" width="286.695" height="202.82" filterUnits="userSpaceOnUse" color-interpolation-filters="sRGB">
<feFlood flood-opacity="0" result="BackgroundImageFix"/>
<feColorMatrix in="SourceAlpha" type="matrix" values="0 0 0 0 0 0 0 0 0 0 0 0 0 0 0 0 0 0 127 0" result="hardAlpha"/>
<feOffset dy="4"/>
<feGaussianBlur stdDeviation="2"/>
<feComposite in2="hardAlpha" operator="out"/>
<feColorMatrix type="matrix" values="0 0 0 0 0 0 0 0 0 0 0 0 0 0 0 0 0 0 0.25 0"/>
<feBlend mode="normal" in2="BackgroundImageFix" result="effect1_dropShadow_381_1751"/>
<feBlend mode="normal" in="SourceGraphic" in2="effect1_dropShadow_381_1751" result="shape"/>
</filter>
</defs>
</svg>
