<svg width="50" height="50" viewBox="0 0 50 50" fill="none" xmlns="http://www.w3.org/2000/svg">
<path d="M25 13.5417C22.7338 13.5417 20.5184 14.2137 18.6341 15.4727C16.7498 16.7318 15.2811 18.5213 14.4139 20.6151C13.5466 22.7088 13.3197 25.0127 13.7618 27.2354C14.204 29.4581 15.2953 31.4998 16.8977 33.1023C18.5002 34.7047 20.5419 35.796 22.7646 36.2382C24.9873 36.6803 27.2912 36.4534 29.3849 35.5861C31.4787 34.7189 33.2682 33.2502 34.5273 31.3659C35.7863 29.4816 36.4583 27.2662 36.4583 25C36.4549 21.9621 35.2466 19.0496 33.0985 16.9015C30.9504 14.7534 28.0379 13.5451 25 13.5417V13.5417ZM25 34.375C23.1458 34.375 21.3332 33.8252 19.7915 32.795C18.2498 31.7649 17.0482 30.3007 16.3386 28.5877C15.6291 26.8746 15.4434 24.9896 15.8051 23.171C16.1669 21.3525 17.0598 19.682 18.3709 18.3709C19.682 17.0598 21.3525 16.1669 23.171 15.8051C24.9896 15.4434 26.8746 15.6291 28.5877 16.3386C30.3007 17.0482 31.7649 18.2498 32.795 19.7915C33.8252 21.3332 34.375 23.1458 34.375 25C34.3722 27.4855 33.3836 29.8685 31.626 31.626C29.8685 33.3836 27.4855 34.3722 25 34.375V34.375ZM36.4583 0H13.5417C9.95144 0.00406661 6.50943 1.43208 3.97075 3.97075C1.43208 6.50943 0.00406661 9.95144 0 13.5417V36.4583C0.00406661 40.0486 1.43208 43.4906 3.97075 46.0292C6.50943 48.5679 9.95144 49.9959 13.5417 50H36.4583C40.0486 49.9959 43.4906 48.5679 46.0292 46.0292C48.5679 43.4906 49.9959 40.0486 50 36.4583V13.5417C49.9959 9.95144 48.5679 6.50943 46.0292 3.97075C43.4906 1.43208 40.0486 0.00406661 36.4583 0V0ZM47.9167 36.4583C47.9132 39.4962 46.7049 42.4087 44.5568 44.5568C42.4087 46.7049 39.4962 47.9132 36.4583 47.9167H13.5417C10.5038 47.9132 7.5913 46.7049 5.44319 44.5568C3.29508 42.4087 2.08676 39.4962 2.08333 36.4583V13.5417C2.08676 10.5038 3.29508 7.5913 5.44319 5.44319C7.5913 3.29508 10.5038 2.08676 13.5417 2.08333H36.4583C39.4962 2.08676 42.4087 3.29508 44.5568 5.44319C46.7049 7.5913 47.9132 10.5038 47.9167 13.5417V36.4583ZM40.625 11.4583C40.625 11.8704 40.5028 12.2732 40.2739 12.6158C40.045 12.9584 39.7196 13.2254 39.3389 13.3831C38.9582 13.5408 38.5394 13.582 38.1352 13.5016C37.7311 13.4212 37.3599 13.2228 37.0685 12.9315C36.7772 12.6401 36.5787 12.2689 36.4984 11.8648C36.418 11.4606 36.4592 11.0418 36.6169 10.6611C36.7746 10.2804 37.0416 9.95502 37.3842 9.7261C37.7268 9.49719 38.1296 9.375 38.5417 9.375C39.094 9.37563 39.6235 9.59533 40.0141 9.98589C40.4047 10.3765 40.6244 10.906 40.625 11.4583V11.4583Z" fill="#F87802"/>
</svg>
