<svg width="190" height="157" viewBox="0 0 190 157" fill="none" xmlns="http://www.w3.org/2000/svg">
<path d="M88.1934 106.437H99.2676L100.322 64.3369H87.1387L88.1934 106.437ZM93.7305 128.277C97.7295 128.277 100.894 125.245 100.894 121.378C100.894 117.511 97.7295 114.479 93.7305 114.479C89.7314 114.479 86.5674 117.511 86.5674 121.378C86.5674 125.245 89.7314 128.277 93.7305 128.277Z" fill="white"/>
<path d="M98.8431 13.1034L179.635 146.418C181.453 149.417 179.293 153.25 175.787 153.25H14.2026C10.6959 153.25 8.53673 149.417 10.3542 146.418L91.1462 13.1034C92.8978 10.2131 97.0915 10.2131 98.8431 13.1034Z" stroke="white" stroke-width="7"/>
</svg>
