<svg width="40" height="40" viewBox="0 0 40 40" fill="none" xmlns="http://www.w3.org/2000/svg">
<path d="M33.8359 33.6836L25.2227 25.0703" stroke="#25422B" stroke-width="2" stroke-linecap="round"/>
<path fill-rule="evenodd" clip-rule="evenodd" d="M20.7109 32.043C27.0536 32.043 32.1953 26.9012 32.1953 20.5586C32.1953 14.2159 27.0536 9.07422 20.7109 9.07422C14.3683 9.07422 9.22656 14.2159 9.22656 20.5586C9.22656 26.9012 14.3683 32.043 20.7109 32.043ZM20.7109 12.9961C19.7178 12.9961 18.7344 13.1917 17.8169 13.5718C16.8994 13.9518 16.0657 14.5089 15.3634 15.2111C14.6612 15.9133 14.1041 16.747 13.7241 17.6646C13.344 18.5821 13.1484 19.5655 13.1484 20.5586C13.1484 21.1109 13.5962 21.5586 14.1484 21.5586C14.7007 21.5586 15.1484 21.1109 15.1484 20.5586C15.1484 19.8281 15.2923 19.1048 15.5719 18.4299C15.8514 17.755 16.2611 17.1418 16.7777 16.6253C17.2942 16.1088 17.9074 15.6991 18.5823 15.4195C19.2571 15.14 19.9805 14.9961 20.7109 14.9961C21.2632 14.9961 21.7109 14.5484 21.7109 13.9961C21.7109 13.4438 21.2632 12.9961 20.7109 12.9961Z" fill="#25422B"/>
</svg>
