<svg width="33" height="36" viewBox="0 0 33 36" fill="none" xmlns="http://www.w3.org/2000/svg">
<ellipse cx="15.9861" cy="9.65854" rx="9.70482" ry="9.65854" fill="#5AAB0A"/>
<path d="M32.7451 31.6594C32.7451 37.02 21.1606 35.9059 15.8188 35.9059C10.477 35.9059 0.101562 37.02 0.101562 31.6594C0.101562 26.2988 10.477 21.9531 15.8188 21.9531C21.1606 21.9531 32.7451 26.2988 32.7451 31.6594Z" fill="#5AAB0A"/>
<ellipse cx="15.9799" cy="11.415" rx="7.05805" ry="7.02439" fill="#5AAB0A"/>
<path d="M28.3366 28.0947C28.3366 31.9742 19.883 31.1679 15.985 31.1679C12.0869 31.1679 4.51562 31.9742 4.51562 28.0947C4.51562 24.2152 12.0869 21.0703 15.985 21.0703C19.883 21.0703 28.3366 24.2152 28.3366 28.0947Z" fill="#5AAB0A"/>
</svg>
