<svg width="142" height="141" viewBox="0 0 142 141" fill="none" xmlns="http://www.w3.org/2000/svg">
<path fill-rule="evenodd" clip-rule="evenodd" d="M0 0.0703125V140.659H142V0.0703125H0ZM44.1673 116.868H23.0995V54.114H44.1673V116.868ZM33.6334 45.5489H33.4942C26.427 45.5489 21.8462 40.7284 21.8462 34.7031C21.8462 28.5456 26.5609 23.8617 33.7713 23.8617C40.9834 23.8617 45.4153 28.5456 45.5533 34.7031C45.5533 40.7284 40.9834 45.5489 33.6334 45.5489ZM120.154 116.868H99.0804V83.2944C99.0804 74.8619 96.0357 69.1057 88.4086 69.1057C82.5838 69.1057 79.1224 72.9814 77.5975 76.7355C77.0433 78.0766 76.8985 79.9407 76.8985 81.8212V116.868H55.821C55.821 116.868 56.1034 60.0014 55.821 54.1143H76.8985V63.0066C79.6988 58.7405 84.6963 52.6411 95.8909 52.6411C109.759 52.6411 120.154 61.6079 120.154 80.8818V116.868Z" fill="#D9D9D9"/>
</svg>
