<svg width="56" height="56" viewBox="0 0 56 56" fill="none" xmlns="http://www.w3.org/2000/svg">
<path d="M55.3242 55.1367L1.09443 55.3237L0.90746 1.0939L55.1372 0.906932L55.3242 55.1367Z" fill="#D9D9D9"/>
<path d="M12.2768 28.3145C11.693 28.9023 11.6963 29.852 12.2841 30.4358L21.8629 39.9487C22.4507 40.5325 23.4004 40.5292 23.9842 39.9414C24.568 39.3536 24.5647 38.4039 23.9769 37.8201L15.4624 29.3641L23.9184 20.8497C24.5021 20.2618 24.4989 19.3121 23.9111 18.7283C23.3233 18.1446 22.3735 18.1479 21.7898 18.7357L12.2768 28.3145ZM43.4636 27.7676L13.3359 27.8715L13.3463 30.8714L43.4739 30.7676L43.4636 27.7676Z" fill="black"/>
</svg>
